<?xml version="1.0" standalone="no"?>
<!DOCTYPE svg PUBLIC "-//W3C//DTD SVG 1.1//EN" "http://www.w3.org/Graphics/SVG/1.1/DTD/svg11.dtd" >
<svg xmlns="http://www.w3.org/2000/svg">
<metadata></metadata>
<defs>
<font id="amethystregular" horiz-adv-x="2048" >
<font-face units-per-em="2048" ascent="2048" descent="0" />
<missing-glyph horiz-adv-x="500" />
<glyph horiz-adv-x="0" />
<glyph horiz-adv-x="682" />
<glyph unicode="0" d="M430 840v366q0 194 38 350t114 266t187 168t255 58t255 -58t187 -168t115 -266t39 -350v-366q0 -196 -38 -351t-113 -264t-186 -167t-255 -58t-255 58t-188 167t-117 264t-38 351zM484 1220l408 364l2 -2l-408 -364q0 2 -2 2zM486 1218v2l1056 126v-2zM486 1218l2 2 l440 -344l-2 -4zM502 842q0 -168 33 -309t98 -243t164 -159t231 -57t230 57t162 159t95 243t31 309v364q0 172 -32 313t-97 243t-163 157t-230 55t-230 -55t-162 -157t-97 -243t-33 -313v-364zM518 590l2 -2l406 284q0 2 -2 4zM520 588v2l594 -64v-4zM658 226l2 -2l454 298 q-2 2 -2 4zM892 1584l440 300l2 -4l-440 -298zM894 1582q2 2 4 2v396l-4 -2v-396zM894 1582v2l650 -238l-2 -2zM924 876l616 470l2 -2l-616 -472q0 2 -2 4zM926 872q0 2 2 4l634 -180l-2 -4zM926 872l188 -350q0 2 2 4l-186 350zM1112 526l428 174l2 -2l-428 -176q-2 2 -2 4 zM1114 522q0 2 2 4l252 -330l-2 -2z" />
<glyph unicode="1" d="M586 1762l44 52l634 234h16v-2010q-2 -2 -20 -18l-18 -20l-38 38v1910l-574 -216zM768 1802q0 2 2 2l442 -322l-2 -4zM782 1792l208 -670q0 2 2 4l-208 668zM894 728l2 -4l94 398l-4 4zM896 724l314 -356l4 4l-314 356zM896 724l4 4l110 -606l-4 -4zM896 724v4l314 122 v-2zM986 1126l4 -4l220 356q0 2 -2 4zM990 1122q0 2 2 4l222 -276l-4 -2zM1004 122l204 250l2 -4l-204 -250q-2 2 -2 4zM1006 118v4l250 40v-4zM1208 1482l190 190l2 -4l-190 -190q0 2 -2 4zM1210 1478l4 4l238 -246l-2 -4zM1254 162l2 -4l206 480l-4 4zM1262 1886l138 -218 l4 4l-140 218zM1266 794l4 -2l180 440l-4 4zM1270 810q0 2 2 4l192 -172l-2 -4zM1400 1668l4 4l48 -436l-2 -4zM1450 1232q0 2 2 4l12 -594l-2 -4z" />
<glyph unicode="2" d="M380 1450q-2 122 41 231t120 191t184 129t236 47t234 -35t179 -103t115 -170t41 -234q0 -94 -36 -189t-95 -189t-134 -187t-151 -183l-586 -684h1110l32 -38l-32 -36h-604h-606v74l662 764q96 108 164 201t112 174t65 153t21 140q0 106 -31 193t-93 148t-154 94t-214 33 q-108 0 -201 -40t-161 -110t-106 -166t-38 -208l-36 -38zM504 88l692 346l2 -4l-692 -346q0 2 -2 4zM506 1714q2 2 2 4l296 -234l-4 -2zM506 1714l148 -910q2 0 4 2l-148 912zM594 220l4 -4l56 588q-2 0 -4 2zM650 806l4 -2l146 678q0 2 -2 2zM652 806l558 182l2 -2 l-558 -182zM798 1484l206 500l2 -2l-206 -500q0 2 -2 2zM800 1482l2 2l648 -90v-4zM800 1482q2 2 4 2l426 -516l-2 -2zM1140 30l4 -2l54 402l-4 4zM1194 434l38 494l4 -2l-38 -496zM1198 430q2 2 2 4l398 -404l-2 -2zM1212 986q0 2 2 2l384 -958l-2 -2z" />
<glyph unicode="3" d="M406 582l36 34l38 -34q0 -112 43 -205t120 -160t181 -105t227 -38t219 33t163 94t102 150t35 199q0 122 -43 208t-121 141t-184 80t-234 25h-152l-40 38l40 40h76h76q132 0 232 35t168 94t103 137t35 164q0 96 -29 179t-88 146t-152 100t-219 37q-110 0 -203 -33 t-163 -94t-110 -150t-40 -199l-40 -42l-34 42q0 126 47 228t128 174t187 110t228 38q128 0 232 -38t177 -107t113 -169t40 -226q0 -80 -26 -152t-74 -131t-117 -105t-155 -72q196 -46 306 -171t110 -321q0 -132 -45 -236t-124 -175t-188 -108t-237 -37q-76 0 -153 15 t-148 47t-134 79t-109 111t-73 146t-27 184zM440 554l148 372l4 -4l-150 -372q-2 2 -2 4zM560 1738l306 80l2 -2l-306 -82q-2 2 -2 4zM588 256l4 -4v670l-4 4v-670zM588 926l134 442l4 -2l-134 -444zM590 256l546 378l2 -2l-546 -380q-2 2 -2 4zM590 926l480 576l2 -4 l-480 -576q-2 2 -2 4zM592 922q0 2 2 4l546 -292l-2 -2zM592 922v2l480 100zM722 1368l142 450l4 -2l-142 -450q-2 0 -4 2zM864 1818l94 178l4 -4l-94 -176q-2 2 -4 2zM868 1816v2l726 -302v-4zM868 1816q0 2 2 2l206 -316l-4 -4zM1068 66l4 -4l66 570q-2 2 -4 2zM1068 1026 l4 -2v474l-4 4v-476zM1072 1024q2 2 4 2l66 -392l-4 -2zM1072 1498v4l452 42l2 -4zM1138 632v2l456 48v-2z" />
<glyph unicode="4" d="M308 594v42l954 1412h90v-1380h172h174l42 -36l-42 -38h-346v-546l-36 -38l-38 38v546h-970zM406 670l4 -2l434 422q-2 2 -2 4zM410 668v2l408 -248v-4zM424 668h426h428v1290l-116 -188zM816 422l334 208l2 -4l-334 -208q-2 2 -2 4zM818 418v4l494 -314l-2 -2zM818 418 q0 2 2 4l56 -418l-2 -4zM818 1290l26 -200l4 4l-28 200zM840 1094l166 462l4 -4l-166 -462zM842 1094l434 556l4 -2l-436 -558q-2 2 -2 4zM844 1090q0 2 2 4l452 -294l-2 -4zM872 4l424 114v-4l-422 -114q-2 2 -2 4zM1010 1552v4l268 94l2 -2z" />
<glyph unicode="5" d="M428 560l38 38l38 -38q22 -238 155 -361t369 -123q250 0 371 151t121 443q0 118 -34 220t-100 176t-163 116t-221 42q-82 0 -147 -11t-119 -32t-99 -50t-85 -67l-56 22q6 60 48 482l46 482h986l44 -42l-44 -32h-918l-82 -810q26 20 69 44t98 44t120 33t137 13 q130 0 240 -42t189 -124t123 -198t44 -263t-31 -269t-100 -212t-177 -140t-260 -50q-120 -2 -224 32t-184 104t-130 175t-62 247zM556 338l368 418l2 -2l-368 -420q0 2 -2 4zM558 334v4l376 -44v-4zM558 1092l2 2l368 -338l-2 -2zM596 1624l254 370l4 -2l-256 -370z M612 1640q2 2 2 4l554 -378l-2 -4zM854 1992q0 2 2 2l314 -728l-4 -4zM924 756l532 322l2 -2l-532 -322q0 2 -2 2zM926 754q0 2 2 2l422 -224l-2 -2zM926 754l16 -704l4 4l-16 702zM932 294l414 238l2 -2l-414 -240q0 2 -2 4zM940 54l2 -4l406 480q-2 0 -2 2zM1164 1266 l180 728l4 -2l-182 -730q-2 2 -2 4zM1164 1278l362 236l2 -4l-362 -234zM1192 1212l156 -682q2 0 4 2l-156 684zM1348 530l2 2l180 -86l-2 -4zM1348 1992l2 2l182 -480l-4 -4zM1456 1078l2 -2l70 434q0 2 -2 4z" />
<glyph unicode="6" d="M420 700v230q-2 300 74 511t205 346t302 198t367 63h26q2 -2 22 -16l22 -16l-44 -42h-26q-172 0 -326 -54t-273 -168t-192 -293t-83 -429q38 66 94 122t128 97t157 65t181 24q138 0 245 -50t181 -137t112 -206t38 -262t-41 -269t-115 -217t-178 -144t-228 -53 q-138 0 -257 49t-206 140t-137 221t-48 290zM458 624v2l476 108v-4zM492 702q0 -142 43 -258t119 -199t182 -128t232 -45q112 0 202 50t154 135t98 195t34 231t-31 228t-95 185t-160 123t-226 45q-96 0 -187 -30t-165 -81t-126 -122t-74 -153v-176zM506 1342l520 292l2 -4 l-520 -292q-2 2 -2 4zM730 1748q0 2 2 4l298 -118l-2 -4zM732 150l4 -4l198 584l-4 4zM930 734l180 550l4 -2l-180 -552zM932 734l592 218v-4l-590 -218q0 2 -2 4zM934 730q0 2 2 4l590 -362l-2 -4zM934 730l4 4l128 -662l-4 -4zM1026 1634l316 352l2 -4l-316 -352 q-2 2 -2 4zM1028 1630v4l344 -60v-2zM1028 1630l4 4l170 -314l-2 -4zM1076 50l446 902l2 -4l-444 -900q-2 0 -4 2zM1198 1320l170 254l4 -2l-172 -256q-2 2 -2 4zM1344 1982l4 4l28 -412l-4 -2z" />
<glyph unicode="7" d="M402 2008l38 42h1208v-46q-52 -114 -416 -922l-416 -924l-48 -40l-24 40l824 1820h-1128zM564 2008l2 2l748 -624l-2 -4zM564 2008q2 2 4 2l184 -778l-2 -4zM746 510l4 -2v720l-4 4v-722zM746 510l308 340l2 -2l-306 -340q-2 2 -4 2zM748 1232l564 154v-4l-562 -154 q-2 2 -2 4zM750 508q0 2 2 2l94 -148l-2 -4zM750 508q0 2 2 2l20 -322l-4 -4zM750 1228q0 2 2 4l328 -406l-2 -4zM768 184l4 4l108 -184l-4 -2zM844 358q2 2 2 4l34 -358l-4 -2zM844 358q0 2 2 4l232 -122v-4zM874 4l200 236l4 -4l-202 -234zM884 340l426 330l2 -4 l-426 -330q0 2 -2 4zM1074 240l236 430l2 -4l-234 -430zM1174 1002l304 342l2 -4l-304 -342q0 2 -2 4zM1176 998l136 -332l4 4l-136 332zM1216 2008l96 -636q2 0 4 2l-96 636zM1310 670l168 674l2 -4l-168 -674q0 2 -2 4zM1312 1382l168 -42q0 2 2 4l-168 42zM1478 1344 l130 618l2 -2l-130 -620q-2 2 -2 4z" />
<glyph unicode="8" d="M390 546q0 94 30 174t86 145t134 111t170 72q-82 24 -149 68t-115 104t-74 135t-26 159q0 130 43 229t121 167t183 103t226 35t227 -35t185 -103t125 -167t46 -229q0 -84 -27 -159t-77 -135t-117 -104t-151 -68q94 -26 173 -72t136 -111t89 -145t32 -174q0 -136 -50 -238 t-136 -171t-201 -103t-249 -34t-250 34t-202 103t-135 171t-47 238zM434 490l742 234v-2l-740 -236q0 2 -2 4zM436 486q0 2 2 4l674 -420l-2 -4zM462 540q0 -114 44 -200t119 -146t178 -90t221 -30t220 30t177 90t119 146t44 200q0 108 -44 195t-120 148t-178 94t-220 33 t-220 -33t-177 -94t-119 -148t-44 -195zM520 1523q0 -103 38 -184t105 -138t159 -87t199 -30t199 30t160 87t108 138t40 181t-40 183t-109 143t-161 94t-198 34t-198 -31t-159 -90t-105 -143t-38 -187zM556 1294l404 312l2 -4l-404 -312q-2 2 -2 4zM642 1854q0 2 2 4 l322 -252l-4 -4zM760 978q2 2 2 4l416 -258l-2 -2zM906 1078l2 -2l54 526q0 2 -2 4zM906 1078l396 290l2 -4l-396 -288q0 2 -2 2zM960 1606l342 294l2 -2l-342 -296q0 2 -2 4zM962 1602q2 2 2 4l342 -238l-2 -4zM1102 30l4 -2l70 694q-2 0 -2 2zM1174 724l222 200l2 -2 l-222 -200zM1176 722q2 0 2 2l382 -368l-2 -2zM1300 1368l116 456l4 -2l-116 -458zM1302 1368l254 238l2 -4l-254 -238q-2 2 -2 4zM1304 1364q0 2 2 4l128 -148l-4 -4z" />
<glyph unicode="9" d="M416 1338q0 146 41 275t119 225t186 153t238 57q150 0 268 -49t199 -146t124 -245t43 -344v-224q0 -248 -56 -441t-168 -327t-282 -203t-400 -69h-46l-36 38l38 36h44q216 0 372 65t258 187t152 295t50 389v8q-38 -80 -96 -144t-131 -110t-160 -71t-183 -25 q-132 0 -238 54t-181 147t-115 214t-40 255zM488 1338q0 -114 34 -222t98 -191t157 -133t213 -50q124 0 221 40t168 103t115 141t66 152v84q0 178 -38 312t-109 223t-174 133t-233 44q-118 0 -214 -54t-163 -142t-104 -203t-37 -237zM496 1526v4l424 -108l-2 -2zM652 314 l206 420l2 -4l-204 -420zM654 314l604 142v-4l-602 -142q0 2 -2 4zM656 310q0 2 2 4l202 -248l-2 -2zM854 708l4 -4l60 716q-2 0 -2 2zM916 1422l416 494l2 -2l-416 -494zM918 1420q2 0 2 2l680 -280l-2 -4zM1064 684q2 0 4 2l192 -230l-2 -4zM1258 452q0 2 2 4l182 -72v-4z " />
<glyph unicode="A" d="M240 32l738 1972l46 46l44 -46l742 -1972l-38 -30l-42 30l-222 588h-484h-484l-220 -588l-46 -30zM310 102l2 -4l518 242v4zM310 102l740 22v-2l-738 -24q0 2 -2 4zM540 620q0 2 2 4l520 -500l-2 -2zM566 694h458h456l-414 1110l-40 118h-4l-40 -118zM640 926q2 2 2 4 l408 -244l-2 -4zM646 930l276 376l2 -2l-276 -378q-2 2 -2 4zM648 926v4l432 98v-2zM828 344l228 280l4 -4l-230 -280q0 2 -2 4zM828 1460q2 2 2 4l98 -158l-4 -2zM830 340l328 -14v4l-328 14v-4zM922 1306l156 146l2 -2l-156 -146zM924 1304q2 0 4 2l148 -278l-2 -2z M1040 686l36 342l4 -2l-38 -344q-2 2 -2 4zM1050 122v2l674 -12v-4zM1056 124l100 206l2 -4l-98 -204q-2 2 -4 2zM1060 620l98 -294l4 4l-100 294zM1078 1028l276 72l2 -4l-276 -70zM1080 1026l2 2l382 -362l-2 -4zM1080 1026q2 0 4 2v424l-4 -2v-424zM1080 1450l2 2 l276 -352l-2 -4zM1080 1450q2 2 4 2v370l-4 -4v-368zM1158 326q2 2 2 4l550 -218v-4zM1158 326v4l414 118l2 -2z" />
<glyph unicode="B" d="M358 0v1024v1024h552q334 0 510 -128t176 -396q0 -186 -93 -309t-261 -153v-4q190 -24 320 -165t130 -329q0 -274 -175 -419t-475 -145h-684zM402 1622v4l412 -38v-4zM420 1092l392 496l2 -4l-392 -496q-2 2 -2 4zM436 76h606q272 0 422 126t150 360q0 190 -144 320 t-412 130h-622v-468v-468zM436 1088h252h252q292 0 435 107t143 332t-151 335t-457 110h-474v-884zM436 1972q2 2 2 4l842 -864l-2 -4zM514 58l310 504l4 -4l-312 -502zM516 1012q2 2 4 2l310 -452l-2 -4zM810 1588l106 410l4 -4l-106 -410zM812 1588l210 144l2 -2 l-210 -146q0 2 -2 4zM814 1584q0 2 2 4l676 -228l-2 -4zM824 562l230 452l4 -2l-230 -454zM826 562l306 210l2 -2l-306 -212q-2 2 -2 4zM828 558q0 2 2 4l582 -408l-2 -4zM828 558v4l788 -108v-4zM1022 1732l18 266l4 -4l-20 -264q0 2 -2 2zM1024 1730q2 2 4 2l482 -392 l-2 -4zM1030 1732v4l346 142l2 -4zM1058 1012l76 -242q0 2 2 2l-76 242zM1132 772l318 130l2 -4l-318 -128zM1134 770v2l484 -318l-2 -4z" />
<glyph unicode="C" d="M364 874v300v8q0 392 192 628q194 238 528 238q168 0 343 -85t203 -245l-8 -46l-46 18q-28 140 -183 212t-309 72q-298 0 -473 -216t-175 -582v-302q0 -368 175 -584t473 -216q150 0 307 90t243 274l38 50l14 -58q-46 -206 -239 -317t-363 -113q-334 0 -528 237 q-192 235 -192 629v8zM410 760v4l868 42l2 -4zM410 1136q2 2 2 4l260 -66v-2zM420 760v4l504 -214v-2zM424 764l244 310l4 -2l-244 -310q-2 2 -4 2zM438 1448v4l538 94l2 -4zM562 330l360 220l2 -2l-360 -220q0 2 -2 2zM668 1074l306 472l4 -4l-306 -470q-2 2 -4 2z M672 1072l252 -524q0 2 2 2l-252 524zM672 1072v2l608 -268v-4zM684 1834l4 4l292 -292l-2 -4zM886 78l34 472l4 -2l-34 -474zM888 78l216 386l2 -4l-216 -386q-2 2 -2 4zM922 550l356 256l2 -4l-356 -254zM924 548v2l184 -86l-2 -4zM974 1546l388 386l2 -4l-386 -386z M976 1546l578 216v-4l-576 -216q-2 2 -2 4zM978 1542q0 2 2 4l360 -254l-2 -4zM978 1542q0 2 2 4l302 -740l-2 -4zM1104 464l172 342l4 -4l-174 -342q0 2 -2 4zM1106 460l232 -370q2 2 2 4l-230 370zM1276 806l58 486l4 -4l-58 -486zM1276 808l276 180l2 -2l-276 -180z M1280 802v4l332 -222v-4zM1280 802l58 -712l4 4l-60 712zM1334 1292l218 470l2 -4l-216 -470zM1336 94l272 490l4 -4l-274 -490q-2 2 -2 4zM1338 1288q2 2 2 4l218 -304l-4 -2zM1554 986q2 2 4 2v774l-4 -4v-772zM1554 986q2 2 4 2l86 -614l-4 -4z" />
<glyph unicode="D" d="M318 0v1024v1024h566q182 0 337 -65t268 -184t177 -285t64 -364v-252q0 -198 -64 -364t-177 -285t-268 -184t-337 -65h-566zM376 1256q2 2 2 4l300 -792l-2 -4zM376 1906q0 2 2 4l514 -394l-2 -4zM384 1234l504 282l2 -4l-504 -282q-2 2 -2 4zM386 1230v4l898 -178v-2z M394 76h490q166 0 307 61t244 170t161 260t58 331v256q0 178 -58 329t-161 259t-244 169t-307 61h-490v-948v-948zM444 32l4 -4l228 436l-4 4zM674 468l582 184v-4l-580 -184q0 2 -2 4zM674 468l608 588l2 -2l-608 -590q-2 2 -2 4zM676 464q0 2 2 4l438 -412l-2 -2z M886 1516l282 446l2 -4l-280 -446zM890 1512q0 2 2 4l394 -460l-2 -2zM890 1512v4l524 -54v-2zM1112 56l2 -2l142 594l-4 4zM1152 1946q2 0 2 2l264 -486l-4 -2zM1252 652l28 404l4 -2l-28 -406zM1254 652l200 192l2 -4l-200 -192q-2 2 -2 4zM1256 648v4l378 -70v-4z M1280 1056l132 406l2 -2l-130 -406q-2 2 -4 2zM1284 1054l2 2l172 -212l-2 -4zM1412 1462l158 170l2 -4l-158 -168zM1414 1460q2 0 2 2l270 -156l-2 -2zM1414 1460q2 0 4 2l270 -680l-4 -4zM1456 840v4l228 -46v-2z" />
<glyph unicode="E" d="M382 0v2048h1246l38 -40l-38 -36h-1170v-866h1026l32 -40l-32 -36h-512h-514v-954h1170l38 -42l-38 -34h-1246zM422 1064l328 378l4 -4l-330 -378q0 2 -2 4zM440 1012l314 -532q0 2 2 4l-314 532zM440 1926q2 2 2 4l314 -488l-2 -4zM516 40l4 -4l234 444l-4 4zM750 484 l412 550l2 -4l-410 -550zM750 1442l206 534l4 -4l-206 -534zM752 484l582 248l2 -4l-582 -248q-2 2 -2 4zM752 1442l538 32l2 -4l-538 -32q0 2 -2 4zM754 480q0 2 2 4l322 -430l-2 -4zM754 480v4l440 -12v-4zM754 1438q0 2 2 4l410 -362l-2 -2zM960 1972q2 2 2 4l332 -502 l-2 -4zM1072 54l4 -4l118 418l-4 4zM1160 1080l4 -2l128 392l-4 4zM1164 1030l4 4l170 -302l-2 -4zM1190 472l4 -4l142 260l-4 4zM1194 468q0 2 2 4l402 -418l-2 -4zM1288 1474l338 530l2 -4l-336 -530zM1336 728q2 2 2 4l260 -692l-2 -4z" />
<glyph unicode="F" d="M376 36v2014h1248l50 -44l-50 -32h-1174v-870h1032l42 -44l-42 -34h-516h-516v-990l-34 -34zM404 884q0 2 2 4l324 -508l-2 -4zM426 70l2 -4l300 310l-4 4zM426 1154l298 422l4 -4l-300 -422q0 2 -2 4zM428 66v4l596 22v-4zM428 884l656 -158v2l-654 160zM428 1974 q2 0 4 2l298 -400l-2 -4zM724 380l358 348l2 -2l-356 -350zM724 1576l174 434l4 -4l-174 -434zM726 1576l418 178l2 -2l-418 -180q-2 2 -2 4zM728 376v4h370v-4h-370zM728 376l296 -288q2 2 2 4l-296 288zM728 1572q0 2 2 4l418 -530l-2 -4zM1022 92l72 288l4 -4l-74 -288 q-2 2 -2 4zM1024 88v4l262 84l2 -4zM1070 2006l76 -254q2 0 2 2l-76 256zM1080 728l62 318l4 -4l-62 -316q-2 0 -4 2zM1084 726h346v2h-346v-2zM1084 726q2 0 4 2l14 -348l-4 -4zM1084 726l374 -318q2 2 2 4l-374 316zM1098 376v4l360 32v-4zM1098 376q2 2 2 4l190 -204 l-2 -4zM1142 1046l4 -4l284 582l-4 4zM1144 1754l236 256l2 -4l-236 -254q-2 0 -2 2zM1146 1042q2 2 2 4v708l-2 -2v-710zM1146 1042q0 2 2 4l284 -318l-2 -2zM1146 1752v2l284 -126v-4zM1284 176l4 -4l170 236q0 2 -2 4zM1426 1628l4 -4l46 382q-2 2 -2 4zM1430 726 l28 -318l4 4l-30 316z" />
<glyph unicode="G" d="M302 876v326v7q0 377 202 607q204 232 540 232q170 -6 340 -110t196 -236l-8 -70l-36 32l-30 58q-62 96 -187 172t-275 80q-308 0 -489 -212t-181 -558v-328q0 -362 187 -582t507 -220q226 0 387 63t219 139v580h-538l-38 38l38 38h612v-690q-64 -88 -239 -165t-441 -77 q-348 0 -557 239t-209 637zM348 672v4l488 52v-2zM348 1296v4l252 -74l-2 -4zM596 1226l200 402l2 -4l-200 -402q0 2 -2 4zM598 1222v4l548 -32v-2zM598 1222l4 4l238 -498l-4 -2zM598 1840l2 2l908 -116l-2 -4zM628 1836l518 -644q2 0 2 2l-516 644zM696 136l2 -2l138 592 q0 2 -2 2zM798 1624v4l708 98v-4zM834 728l310 466l2 -2l-310 -466q0 2 -2 2zM836 726v2l860 16v-2zM836 726l350 -706q2 0 2 2l-348 706zM1144 1194l2 -2l360 530q0 2 -2 4zM1184 36l2 -4l510 710q0 2 -2 2z" />
<glyph unicode="H" d="M318 38v1982l36 30l38 -30v-962h1264v962l40 30l34 -30v-1982q-2 -2 -16 -18l-18 -18l-40 36v946h-1264v-946l-34 -28zM364 1152l2 -4l448 372q0 2 -2 4zM368 172l844 272l2 -4l-844 -272q-2 2 -2 4zM380 172l386 600l4 -4l-388 -600q-2 2 -2 4zM392 176v2l766 -70v-2z M392 1956q0 2 2 4l420 -440l-4 -2zM392 1956v4l706 -66v-4zM428 1010q2 2 2 4l342 -242l-2 -4zM760 774q2 2 2 4l454 -334l-2 -4zM768 772l378 216l2 -4l-378 -216q-2 2 -2 4zM806 1518l288 376l4 -4l-290 -376q-2 2 -2 4zM810 1518v2l574 148v-4zM810 1518q2 0 4 2 l430 -470l-2 -4zM1096 1894l584 134v-4l-582 -134q-2 2 -2 4zM1098 1890q0 2 2 4l288 -226l-4 -4zM1146 1010l68 -570q0 2 2 4l-68 570zM1148 984q2 2 2 4l508 -198l-2 -2zM1152 106v2l522 204l2 -4zM1154 108l56 342l4 -4l-56 -340q-2 0 -4 2zM1210 444l444 346l2 -2 l-442 -348zM1214 440v4l480 -138v-2zM1230 1028l152 640l2 -4l-150 -640zM1382 1668l2 -4l296 360q0 2 -2 4zM1384 1664l4 4l284 -640l-2 -4z" />
<glyph unicode="I" d="M716 1706l284 334l4 -4l-286 -332q-2 0 -2 2zM718 1704l146 -548l4 4l-148 546zM718 1704l2 2l276 -146l-2 -2zM730 732l130 428l4 -4l-130 -428zM734 728l254 -348q2 2 2 4l-254 348zM734 740v4l262 -82l-2 -4zM800 100l184 284l4 -4l-186 -284q0 2 -2 4zM802 96 l192 -60l2 2l-192 62zM864 1156l114 -74q0 2 2 4l-114 74zM966 46v1966l38 32l36 -32v-1966q-2 -4 -18 -24l-18 -22zM1004 2044q0 2 2 4l322 -280l-2 -4zM1022 48l4 -4l220 538q-2 2 -4 2zM1022 1066l256 254l2 -4l-254 -252q-2 0 -4 2zM1024 48l2 -4l304 106v2zM1024 760 l254 46l2 -4l-254 -44zM1026 746l220 -176q0 2 2 4l-220 176zM1026 1064l254 -262q0 2 2 4l-254 260zM1030 1472l2 -4l294 296q-2 2 -2 4zM1032 1468q2 2 2 4l248 -152l-2 -4zM1242 584l4 -2l34 228l-4 4zM1246 582q2 2 4 2l84 -432l-4 -2zM1276 814l4 -4v506l-4 4v-506z M1276 1320l46 448l4 -4l-46 -448z" />
<glyph unicode="J" d="M456 572l34 44l40 -44q0 -246 129 -372t381 -126q212 0 346 140t134 386v1398q2 4 18 26l18 24l36 -50v-1398q0 -280 -152 -440t-400 -160q-276 0 -430 142t-154 430zM504 564v4l522 -124l-2 -4zM518 568l656 562l2 -4l-656 -562q-2 2 -2 4zM622 202l400 242l2 -4 l-400 -242q0 2 -2 4zM674 704l4 -4l370 914l-4 4zM678 700q0 2 2 4l346 -260l-2 -4zM1020 444l152 686l4 -4l-152 -686zM1022 444l394 302l2 -4l-394 -302q0 2 -2 4zM1024 440q2 2 2 4l304 -326l-2 -4zM1024 440v4l480 -62v-4zM1046 1616l510 60v-2l-508 -62q-2 2 -2 4z M1046 1618l488 322l2 -4l-488 -322q-2 2 -2 4zM1048 1614l128 -488l4 4l-130 488zM1174 1130l380 172l2 -2l-380 -174q0 2 -2 4zM1174 1130l380 578l2 -4l-380 -578q-2 2 -2 4zM1176 1126l242 -384q2 2 2 4l-242 384zM1176 1130l360 10v-4l-358 -10q-2 2 -2 4zM1414 746 l108 394l2 -4l-106 -394zM1416 746l118 120l2 -4l-118 -120q-2 2 -2 4zM1418 742l4 4l70 -364l-4 -4z" />
<glyph unicode="K" d="M374 136v1876l32 38l38 -38v-892h306l798 892l58 38l8 -64l-806 -910l854 -902l14 -80l-70 42l-874 916h-144h-144v-916l-34 -42zM422 204l272 566l2 -4l-270 -566zM422 1090l250 432l2 -4l-248 -430q-2 2 -4 2zM424 204l2 -4l486 226q0 2 -2 2zM426 200v4l768 -200v-2z M426 1072q0 2 2 4l272 -306l-4 -4zM426 1922v2l448 -18v-4zM426 1950l2 2l250 -430l-4 -4zM672 1522l200 384l2 -4l-200 -384q0 2 -2 4zM674 1518l4 4l128 -338l-2 -4zM674 1518v4l600 150v-4zM694 770l56 286l2 -2l-56 -288q0 2 -2 4zM696 766v4l338 -32v-2zM696 766l4 4 l214 -342l-2 -2zM874 1902v4l694 96v-2zM910 428l2 -2l138 324l-4 4zM912 426q0 2 2 2l698 -274v-4zM912 426l2 2l282 -424l-2 -2zM1192 4l418 150l2 -4l-418 -148q-2 0 -2 2z" />
<glyph unicode="L" d="M454 0v2016l38 32l38 -32v-1942h518h516l30 -38l-30 -36h-1110zM484 1798l200 -404l4 4l-202 404zM494 58l254 426l2 -4l-252 -426zM498 902l252 -422l4 4l-254 420zM498 2002l434 -324q0 2 2 4l-434 324zM518 1730v4l414 -52v-4zM524 1150l158 248l2 -4l-158 -248 q0 2 -2 4zM526 1146q2 2 2 4l448 -200l-2 -4zM530 2002v4l648 -40v-4zM682 1398l2 -4l494 568q0 2 -2 4zM684 1394l4 4l292 -448l-2 -4zM684 1394l366 -282q2 2 2 4l-366 282zM684 1394v4l682 -26v-4zM748 484l226 466l4 -4l-228 -466q0 2 -2 4zM750 480l552 -114v2 l-550 116zM750 480l4 4l336 -406l-4 -4zM932 1678q0 2 2 4l434 -310l-2 -4zM974 950l74 166l2 -4l-72 -166zM978 946v4l388 -90v-4zM978 946q2 2 2 4l326 -582l-4 -2zM1048 1116l2 -4l316 256q-2 2 -2 4zM1050 1112q2 2 2 4l316 -256l-2 -4zM1084 58l216 310l2 -2l-216 -312 q0 2 -2 4zM1178 1962l188 -594q2 2 2 4l-186 594zM1298 368l4 -2l64 490l-4 4zM1302 366q2 0 2 2l242 -310l-2 -4zM1362 860l4 -4v512l-4 4v-512z" />
<glyph unicode="M" d="M112 36v1958l48 54l56 -54q50 -116 402 -926l404 -926l808 1852l50 54l56 -54v-1958l-38 -36l-34 36v1840h-4l-810 -1840h-56l-806 1832h-4v-1832l-36 -36zM156 130l4 -4l460 814l-2 2zM182 1156l2 -4l174 450l-4 4zM184 170v4l748 2v-4zM184 868q2 2 4 2l218 -312l-4 -4 zM184 1152q2 2 2 4l436 -214l-2 -2zM402 554q2 2 2 4l552 -382l-2 -4zM1106 198v4l330 32l2 -4zM1374 798l500 570l2 -4l-500 -568zM1376 796l62 -566q0 2 2 4l-60 564zM1376 796q0 2 2 2l500 -240l-2 -4zM1436 234l438 324l2 -4l-438 -324q-2 2 -2 4zM1438 230v4l440 -180 l-2 -4zM1614 1320l262 44v4l-262 -46v-2z" />
<glyph unicode="N" d="M316 44v1968l36 36l38 -36l1266 -1834l4 2v1832l38 36l36 -36v-1968q-2 -2 -20 -22l-18 -22l-36 44l-1266 1840l-4 -2v-1838l-38 -44zM378 130v2l1284 -84l-2 -4zM388 132l2 -2l824 562q0 2 -2 4zM388 414l2 -2l398 900l-2 2zM390 412l446 22v4l-446 -24v-2zM390 1236 l398 76v2l-398 -74v-4zM390 1236l224 -312q0 2 2 4l-222 312zM390 1558q2 2 2 4l398 -248l-2 -2zM390 1986v2h1270v-2h-1270zM410 1986l466 -370q0 2 2 4l-466 368zM614 924l600 -232q2 2 2 4l-602 232v-4zM836 434l824 -390q2 2 2 4l-824 390zM874 1620l812 378l2 -4 l-812 -378q0 2 -2 4zM876 1616l90 -438l4 4l-90 438zM876 1616q0 2 2 4l784 -526l-2 -4zM966 1178l694 -88q2 2 2 4l-696 88v-4zM1386 570l272 524l2 -4l-270 -524z" />
<glyph unicode="O" d="M172 876v298q0 400 228 638t623 238t625 -238t230 -638v-298q0 -400 -229 -638t-624 -238t-625 238q-228 236 -228 631v7zM246 1332l284 -342q0 2 2 4l-284 340zM256 876q0 -366 202 -584t568 -218t567 218t201 584v300q0 364 -203 582t-568 218t-566 -218t-201 -582 v-300zM260 768l266 226l4 -4l-268 -226q-2 2 -2 4zM262 764v4l664 -56v-2zM426 1720v4l404 -122v-4zM526 994l4 -4l300 608l-4 4zM530 990v4l398 -282l-2 -2zM826 96l4 -4l96 618q-2 2 -4 2zM828 1602l292 372l4 -4l-294 -372q-2 2 -2 4zM830 1598v4l760 160l2 -4zM830 1598 v4l1000 -268l-2 -2zM830 1598l256 -574q0 2 2 4l-256 574zM924 712l158 316l4 -4l-160 -314zM926 710l2 2l402 -206v-4zM926 710q2 2 4 2l368 -598l-2 -4zM1084 1028l744 306v-2l-742 -308q-2 2 -2 4zM1086 1024l244 -522q0 2 2 4l-244 522zM1292 114l4 -4l34 392l-4 4z M1326 506l4 -4l498 830q0 2 -2 2zM1328 506l454 206v-2l-452 -208q-2 2 -2 4zM1330 502q0 2 2 4l198 -312l-2 -4z" />
<glyph unicode="P" d="M390 46v2002h624q318 0 482 -153t164 -419t-164 -418t-482 -152h-550v-430v-430l-36 -46zM448 62l2 -4l352 456q-2 2 -4 2zM448 62l776 518l2 -4l-776 -518q0 2 -2 4zM462 938l4 -4l272 510q0 2 -2 4zM464 980h274h276q290 0 431 139t141 355q0 222 -140 361t-432 139 h-550v-994zM466 934q2 2 2 4l328 -436l-4 -4zM466 1988q2 2 2 4l274 -544l-4 -4zM736 1448l260 530l4 -4l-262 -530q0 2 -2 4zM738 1444v4l596 -12v-4zM738 1444q2 2 2 4l638 -380v-4zM790 502l232 422l2 -2l-232 -424q-2 2 -2 4zM792 498v4l434 78v-4zM1000 1974q0 2 2 4 l334 -542l-2 -4zM1022 906l204 -330l4 4l-204 328zM1222 580l40 358l2 -4l-38 -358zM1224 580l178 256l2 -4l-178 -256q-2 2 -2 4zM1264 934l140 -102q2 2 2 4l-140 102zM1332 1436l262 254l2 -4l-262 -254q-2 2 -2 4zM1334 1432q2 2 2 4l72 -600l-4 -4z" />
<glyph unicode="Q" d="M390 1056v252q0 338 170 539t463 201t465 -201t172 -539v-252q-2 -224 -79 -390t-223 -258l258 -348l12 -60l-52 12l-272 356q-70 -20 -136 -36t-142 -16q-296 0 -466 201t-170 539zM452 1028l254 242l2 -4l-254 -242q-2 2 -2 4zM454 1024v4l286 48v-4zM454 1024q0 2 2 4 l286 -198l-2 -2zM454 1056q0 -310 150 -493t422 -183t421 183t149 493v254q0 308 -151 492t-422 184t-420 -184t-149 -492v-254zM454 1336v4l254 -70v-4zM484 806l256 22v2l-256 -20v-4zM566 1750q0 2 2 4l316 -226l-2 -2zM566 1750q0 2 2 4l140 -484l-4 -4zM600 566l4 -4 l136 266q-2 0 -2 2zM604 562v4l350 -22v-4zM706 1270l2 -4l174 260l-2 2zM708 1266l4 4l32 -194l-4 -4zM708 1266v4l338 -96v-4zM736 830l4 -2v244l-4 4v-246zM740 828v2h284v-2h-284zM740 828q2 0 4 2l212 -286l-2 -4zM740 1072v4l304 98l2 -4zM740 1072q2 2 2 4l284 -246 l-2 -2zM794 408l2 -4l158 136q-2 2 -2 4zM880 1528l142 492l2 -4l-142 -490q-2 0 -2 2zM880 1528l288 188l2 -4l-288 -186zM882 1526q2 0 2 2l326 -238l-2 -4zM882 1526q2 0 4 2l162 -354l-2 -4zM950 544l70 286l4 -2l-70 -288zM954 540v4l406 -84v-4zM1020 830l4 -2l22 342 l-4 4zM1022 830l260 92v-4l-258 -90q-2 0 -2 2zM1024 828l2 2l332 -350l-2 -4zM1024 1986l146 -274l4 4l-148 274zM1044 1174l162 116l2 -4l-162 -116q-2 2 -2 4zM1046 1170q0 2 2 4l236 -252l-2 -4zM1168 1716l224 164l2 -2l-224 -166q0 2 -2 4zM1170 1712q2 2 2 4 l450 -326l-2 -4zM1170 1712l4 4l38 -426l-4 -4zM1208 1286v4l410 100l2 -4zM1208 1286l4 4l74 -368l-4 -4zM1208 1286q2 2 2 4l302 -200l-2 -4zM1280 922l228 168l2 -4l-228 -168q0 2 -2 4zM1282 918v4l316 -60l-2 -2zM1282 918l4 4l76 -462l-2 -4zM1506 1090l110 300l4 -4 l-110 -300zM1510 1086q0 2 2 4l88 -228l-4 -2z" />
<glyph unicode="R" d="M354 56v1992h634q322 0 488 -133t166 -401q0 -170 -104 -306t-286 -176l-56 -18q44 -94 256 -478t244 -464v-72l-62 34q-48 76 -268 482l-258 472q-2 6 -4 4h-2h-70h-606v-468v-468l-40 -56zM390 1858l4 4l214 -350l-4 -4zM396 116l4 -4l246 486q-2 2 -2 4zM398 116 l1064 268v-4l-1062 -268q-2 2 -2 4zM426 1066h274h274q312 0 453 126t141 322q0 228 -143 344t-437 116h-562v-908zM434 1028l4 -4l166 484q0 2 -2 4zM438 1024q0 2 2 4l210 -426l-4 -4zM602 1512l336 510l2 -2l-336 -512q0 2 -2 4zM604 1508v4l926 296l2 -4zM604 1508l4 4 l496 -470l-2 -2zM646 598v4l620 152l2 -2zM646 598v4l850 -228l-2 -2zM1066 1042l2 -2l464 764l-4 4z" />
<glyph unicode="S" d="M320 590l36 40l38 -40q0 -276 197 -396t464 -120t433 118t166 314q0 192 -134 300t-480 203t-501 209t-155 341t183 358t479 131t479 -161t183 -429l-36 -40l-38 40q0 228 -161 372t-429 144q-276 0 -431 -119t-155 -292t127 -283t477 -198q336 -90 502 -213t166 -363 t-190 -373t-486 -133q-304 0 -519 138t-215 452zM378 498v4l934 422l2 -4zM398 508l2 2l626 -444l-2 -2zM508 1304v4l1014 474l2 -4zM544 1322v2l642 -50v-4zM748 1954v4l810 -176v-4zM1022 66l2 -2l290 856l-4 4zM1022 66l596 732l2 -4l-596 -730q0 2 -2 2zM1182 1274 l338 508l4 -4l-338 -508zM1186 1270q0 2 2 4l34 -246l-2 -4zM1218 1028l372 272l2 -4l-372 -272q-2 2 -2 4zM1524 1778l68 -482q0 2 2 4l-68 482zM1592 1296q0 2 2 4l30 -502l-4 -4z" />
<glyph unicode="T" d="M134 2008l46 40h1534l48 -42l-48 -32h-366h-364v-1932l-38 -42l-36 42v1932h-730zM346 1974q0 2 2 4l584 -496l-2 -4zM346 1974l238 -1038q2 2 2 4l-238 1038zM448 388l2 -4l480 360q-2 2 -2 4zM448 388l132 552l4 -4l-134 -552q0 2 -2 4zM450 384q2 2 2 4l458 -220v-2z M580 940l4 -4l326 560l-4 4zM584 936q0 2 2 4l346 -192l-2 -4zM968 150l558 314l2 -4l-558 -314q0 2 -2 4zM980 748l4 -4l208 540q0 2 -2 2zM980 1626l210 368l2 -4l-208 -368zM982 748l856 250l2 -4l-856 -250q0 2 -2 4zM984 744q0 2 2 4l544 -284l-2 -4zM984 1622 l208 -338q2 2 4 2l-210 340zM984 1622v4l498 84v-4zM1184 1974q0 2 2 4l298 -268l-2 -4zM1190 1286l296 430l2 -2l-296 -430q0 2 -2 2zM1192 1284l648 -290q0 2 2 4l-648 288zM1192 1284v2l714 320l2 -4zM1480 1710l222 268l2 -4l-222 -268q-2 2 -2 4zM1482 1706q0 2 2 4 l430 -104v-4zM1526 464l310 534l4 -4l-312 -534q-2 2 -2 4zM1704 1974l4 4l202 -372l-2 -4zM1836 998l68 608l4 -4l-68 -608z" />
<glyph unicode="U" d="M342 662v1336l38 50l36 -50v-1336q0 -282 167 -435t441 -153t441 152t167 438v1334l36 50l38 -50v-668v-668q0 -326 -186 -494t-496 -168t-496 168t-186 494zM390 1992q0 2 2 4l286 -140l-2 -4zM412 1066l262 790l2 -4l-260 -788q-2 0 -4 2zM416 1064v2l656 126v-4z M502 322l4 -2l566 868q0 2 -2 4zM504 322l820 108v-2l-818 -108zM676 1852l4 4l396 -664l-4 -4zM676 1852q2 2 2 4l956 -294l-2 -2zM676 1852v4l974 140v-4zM1072 1188v4l558 370l2 -2zM1072 1188l4 4l558 -416l-2 -2zM1072 1188l4 4l252 -762l-4 -2zM1322 430l308 346l2 -2 l-308 -346q0 2 -2 2zM1324 428q2 2 4 2l140 -200l-2 -4z" />
<glyph unicode="V" d="M252 1998l30 50l48 -50l656 -1762q2 -8 18 -56l18 -56h6l36 112l656 1762l50 50l28 -50l-730 -1952l-44 -46l-44 46zM344 1958l2 2l632 -140l-2 -4zM632 1180l342 640l2 -4l-340 -640zM636 1176v4l774 -8v-4zM826 630l2 -2l582 540q0 2 -2 4zM976 1816v4l774 180v-4z M976 1816q2 2 2 4l616 -230v-4zM976 1816l4 4l454 -678l-4 -4z" />
<glyph unicode="W" d="M2 1944l30 44l40 -44l358 -1422q4 -20 36 -150l38 -148h6l76 298l406 1422l34 44l36 -44l406 -1422l74 -298h4l78 298l356 1422l38 44l32 -44l-464 -1840l-34 -44l-38 44l-428 1534l-58 188h-2l-58 -188l-430 -1534l-32 -44l-40 44zM86 1888v4l898 26v-2zM86 1888v4 l838 -238l-2 -4zM86 1888l448 -442l4 4l-450 442zM278 1118l254 332l2 -4l-254 -330zM398 638l2 -4l322 368q0 2 -2 4zM398 638l2 -4l134 812q0 2 -2 4zM534 1446l388 204v4l-388 -204v-4zM534 1446l4 4l194 -460l-4 -2zM1074 1902v2l906 44v-4zM1074 1902l316 -272l2 2 l-316 272zM1266 1220l4 -4l120 414q-2 2 -4 2zM1268 1220l598 276v-2l-596 -278q-2 2 -2 4zM1270 1216q0 2 2 4l452 -304l-2 -2zM1388 1632l2 -2l590 314q-2 2 -2 4zM1390 1630v2l478 -136l-2 -2zM1452 566l4 -4l266 352q-2 0 -2 2z" />
<glyph unicode="X" d="M194 1672l208 284l2 -4l-208 -284q-2 2 -2 4zM196 1668q0 2 2 4l530 -232v-2zM196 1668q2 2 2 4l222 -826l-4 -4zM306 124l672 952l-640 904l4 70l68 -46l610 -874q38 56 308 438l306 436l66 46l4 -70l-638 -904l670 -950l-14 -58l-60 40l-642 914l-640 -914l-70 -50z M404 1968v4l1254 32v-4zM406 222l6 624l4 -4l-6 -624zM410 150v2l930 -148l-2 -2zM412 846l312 594l4 -2l-312 -596zM414 846l568 192v-4l-566 -192q0 2 -2 4zM434 1970q0 2 2 2l586 -300l-2 -4zM664 512v4l346 48v-4zM848 1346l4 -4l168 326q0 2 -2 4zM1006 564l4 -4 l10 462q-2 0 -4 2zM1010 560v4l468 -132v-4zM1010 560q0 2 2 4l330 -560l-4 -2zM1020 1668v4l608 332l2 -4zM1020 1668l4 4l88 -462l-4 -4zM1020 1668v4l386 12v-4zM1272 744l282 216l2 -4l-282 -216q0 2 -2 4zM1336 4l86 442l4 -4l-88 -440zM1424 1604l4 4l130 -648l-2 -4z M1484 482l2 -4l70 478l-4 4zM1486 478v4l318 -4v-4zM1552 960l114 976l4 -4l-114 -976zM1554 960l2 -4l296 210q0 2 -2 2zM1556 956q2 2 2 4l250 -482l-4 -4zM1658 1984q2 2 2 4l196 -820l-4 -2zM1802 478l48 690l2 -2l-48 -692q-2 2 -2 4z" />
<glyph unicode="Y" d="M204 1518l150 452l4 -4l-152 -452q-2 2 -2 4zM206 1514l542 -722l4 4l-544 722zM206 1514q0 2 2 4l558 -138l-2 -4zM342 1970v78l74 -56l642 -1078q2 -4 16 -34l18 -32l36 66l644 1078l62 56l12 -80l-716 -1180v-736l-36 -52l-36 52v736zM442 1950v2l362 -130l-2 -4z M600 240l146 556l2 -4l-144 -556zM602 240l454 304l2 -4l-454 -304q-2 2 -2 4zM604 236v4l454 64v-4zM746 796l186 328l4 -4l-188 -328q0 2 -2 4zM748 792l4 4l308 -252l-2 -4zM762 1360l38 462l2 -4l-38 -462q0 2 -2 4zM768 1400v4l462 156l2 -4zM802 1818v4l944 130v-2z M802 1818q2 2 2 4l430 -262l-2 -4zM920 1104l308 456l4 -4l-310 -454q0 2 -2 2zM1128 322l354 596l2 -2l-354 -598q0 2 -2 4zM1130 318v4l486 192v-2zM1130 788v4l354 126v-2zM1232 1556v4l362 30v-2zM1480 918l112 640l2 -4l-110 -638q-2 0 -4 2zM1482 918l2 -2l300 564 q-2 2 -2 4zM1484 916q2 0 4 2l132 -404l-4 -2zM1526 1582l2 2l258 -100l-2 -4zM1752 1950q2 2 4 2l32 -468l-4 -4z" />
<glyph unicode="Z" d="M236 504l432 826l4 -4l-432 -826zM238 504l504 216l2 -4l-504 -216q-2 2 -2 4zM240 500q0 2 2 4l78 -436l-2 -4zM296 0v62l1308 1912h-1252l-56 36l56 38h1356v-54l-1308 -1918h678h676l60 -34l-60 -42h-1458zM384 1974q2 2 4 2l286 -646l-2 -4zM668 1330l384 662l4 -2 l-384 -664zM670 1330l770 410v-4l-768 -410q-2 2 -2 4zM672 1326v4l384 -156v-2zM672 1326l4 4l72 -610l-4 -4zM754 692q2 0 2 2l220 -626l-2 -4zM970 68l526 748l4 -4l-526 -748zM970 68l158 1084l4 -2l-158 -1086zM1046 1974q0 2 2 2l394 -236l-2 -4zM1132 1150q2 0 2 2 l368 -336l-2 -4zM1380 1512l120 -700q0 2 2 4l-118 700zM1496 816l4 -4l180 1178q-2 2 -4 2zM1500 812q0 2 2 4l246 -758l-2 -4z" />
<glyph unicode="a" d="M240 32l738 1972l46 46l44 -46l742 -1972l-38 -30l-42 30l-222 588h-484h-484l-220 -588l-46 -30zM310 102l2 -4l518 242v4zM310 102l740 22v-2l-738 -24q0 2 -2 4zM540 620q0 2 2 4l520 -500l-2 -2zM566 694h458h456l-414 1110l-40 118h-4l-40 -118zM640 926q2 2 2 4 l408 -244l-2 -4zM646 930l276 376l2 -2l-276 -378q-2 2 -2 4zM648 926v4l432 98v-2zM828 344l228 280l4 -4l-230 -280q0 2 -2 4zM828 1460q2 2 2 4l98 -158l-4 -2zM830 340l328 -14v4l-328 14v-4zM922 1306l156 146l2 -2l-156 -146zM924 1304q2 0 4 2l148 -278l-2 -2z M1040 686l36 342l4 -2l-38 -344q-2 2 -2 4zM1050 122v2l674 -12v-4zM1056 124l100 206l2 -4l-98 -204q-2 2 -4 2zM1060 620l98 -294l4 4l-100 294zM1078 1028l276 72l2 -4l-276 -70zM1080 1026l2 2l382 -362l-2 -4zM1080 1026q2 0 4 2v424l-4 -2v-424zM1080 1450l2 2 l276 -352l-2 -4zM1080 1450q2 2 4 2v370l-4 -4v-368zM1158 326q2 2 2 4l550 -218v-4zM1158 326v4l414 118l2 -2z" />
<glyph unicode="b" d="M358 0v1024v1024h552q334 0 510 -128t176 -396q0 -186 -93 -309t-261 -153v-4q190 -24 320 -165t130 -329q0 -274 -175 -419t-475 -145h-684zM402 1622v4l412 -38v-4zM420 1092l392 496l2 -4l-392 -496q-2 2 -2 4zM436 76h606q272 0 422 126t150 360q0 190 -144 320 t-412 130h-622v-468v-468zM436 1088h252h252q292 0 435 107t143 332t-151 335t-457 110h-474v-884zM436 1972q2 2 2 4l842 -864l-2 -4zM514 58l310 504l4 -4l-312 -502zM516 1012q2 2 4 2l310 -452l-2 -4zM810 1588l106 410l4 -4l-106 -410zM812 1588l210 144l2 -2 l-210 -146q0 2 -2 4zM814 1584q0 2 2 4l676 -228l-2 -4zM824 562l230 452l4 -2l-230 -454zM826 562l306 210l2 -2l-306 -212q-2 2 -2 4zM828 558q0 2 2 4l582 -408l-2 -4zM828 558v4l788 -108v-4zM1022 1732l18 266l4 -4l-20 -264q0 2 -2 2zM1024 1730q2 2 4 2l482 -392 l-2 -4zM1030 1732v4l346 142l2 -4zM1058 1012l76 -242q0 2 2 2l-76 242zM1132 772l318 130l2 -4l-318 -128zM1134 770v2l484 -318l-2 -4z" />
<glyph unicode="c" d="M364 874v300v8q0 392 192 628q194 238 528 238q168 0 343 -85t203 -245l-8 -46l-46 18q-28 140 -183 212t-309 72q-298 0 -473 -216t-175 -582v-302q0 -368 175 -584t473 -216q150 0 307 90t243 274l38 50l14 -58q-46 -206 -239 -317t-363 -113q-334 0 -528 237 q-192 235 -192 629v8zM410 760v4l868 42l2 -4zM410 1136q2 2 2 4l260 -66v-2zM420 760v4l504 -214v-2zM424 764l244 310l4 -2l-244 -310q-2 2 -4 2zM438 1448v4l538 94l2 -4zM562 330l360 220l2 -2l-360 -220q0 2 -2 2zM668 1074l306 472l4 -4l-306 -470q-2 2 -4 2z M672 1072l252 -524q0 2 2 2l-252 524zM672 1072v2l608 -268v-4zM684 1834l4 4l292 -292l-2 -4zM886 78l34 472l4 -2l-34 -474zM888 78l216 386l2 -4l-216 -386q-2 2 -2 4zM922 550l356 256l2 -4l-356 -254zM924 548v2l184 -86l-2 -4zM974 1546l388 386l2 -4l-386 -386z M976 1546l578 216v-4l-576 -216q-2 2 -2 4zM978 1542q0 2 2 4l360 -254l-2 -4zM978 1542q0 2 2 4l302 -740l-2 -4zM1104 464l172 342l4 -4l-174 -342q0 2 -2 4zM1106 460l232 -370q2 2 2 4l-230 370zM1276 806l58 486l4 -4l-58 -486zM1276 808l276 180l2 -2l-276 -180z M1280 802v4l332 -222v-4zM1280 802l58 -712l4 4l-60 712zM1334 1292l218 470l2 -4l-216 -470zM1336 94l272 490l4 -4l-274 -490q-2 2 -2 4zM1338 1288q2 2 2 4l218 -304l-4 -2zM1554 986q2 2 4 2v774l-4 -4v-772zM1554 986q2 2 4 2l86 -614l-4 -4z" />
<glyph unicode="d" d="M318 0v1024v1024h566q182 0 337 -65t268 -184t177 -285t64 -364v-252q0 -198 -64 -364t-177 -285t-268 -184t-337 -65h-566zM376 1256q2 2 2 4l300 -792l-2 -4zM376 1906q0 2 2 4l514 -394l-2 -4zM384 1234l504 282l2 -4l-504 -282q-2 2 -2 4zM386 1230v4l898 -178v-2z M394 76h490q166 0 307 61t244 170t161 260t58 331v256q0 178 -58 329t-161 259t-244 169t-307 61h-490v-948v-948zM444 32l4 -4l228 436l-4 4zM674 468l582 184v-4l-580 -184q0 2 -2 4zM674 468l608 588l2 -2l-608 -590q-2 2 -2 4zM676 464q0 2 2 4l438 -412l-2 -2z M886 1516l282 446l2 -4l-280 -446zM890 1512q0 2 2 4l394 -460l-2 -2zM890 1512v4l524 -54v-2zM1112 56l2 -2l142 594l-4 4zM1152 1946q2 0 2 2l264 -486l-4 -2zM1252 652l28 404l4 -2l-28 -406zM1254 652l200 192l2 -4l-200 -192q-2 2 -2 4zM1256 648v4l378 -70v-4z M1280 1056l132 406l2 -2l-130 -406q-2 2 -4 2zM1284 1054l2 2l172 -212l-2 -4zM1412 1462l158 170l2 -4l-158 -168zM1414 1460q2 0 2 2l270 -156l-2 -2zM1414 1460q2 0 4 2l270 -680l-4 -4zM1456 840v4l228 -46v-2z" />
<glyph unicode="e" d="M382 0v2048h1246l38 -40l-38 -36h-1170v-866h1026l32 -40l-32 -36h-512h-514v-954h1170l38 -42l-38 -34h-1246zM422 1064l328 378l4 -4l-330 -378q0 2 -2 4zM440 1012l314 -532q0 2 2 4l-314 532zM440 1926q2 2 2 4l314 -488l-2 -4zM516 40l4 -4l234 444l-4 4zM750 484 l412 550l2 -4l-410 -550zM750 1442l206 534l4 -4l-206 -534zM752 484l582 248l2 -4l-582 -248q-2 2 -2 4zM752 1442l538 32l2 -4l-538 -32q0 2 -2 4zM754 480q0 2 2 4l322 -430l-2 -4zM754 480v4l440 -12v-4zM754 1438q0 2 2 4l410 -362l-2 -2zM960 1972q2 2 2 4l332 -502 l-2 -4zM1072 54l4 -4l118 418l-4 4zM1160 1080l4 -2l128 392l-4 4zM1164 1030l4 4l170 -302l-2 -4zM1190 472l4 -4l142 260l-4 4zM1194 468q0 2 2 4l402 -418l-2 -4zM1288 1474l338 530l2 -4l-336 -530zM1336 728q2 2 2 4l260 -692l-2 -4z" />
<glyph unicode="f" d="M376 36v2014h1248l50 -44l-50 -32h-1174v-870h1032l42 -44l-42 -34h-516h-516v-990l-34 -34zM404 884q0 2 2 4l324 -508l-2 -4zM426 70l2 -4l300 310l-4 4zM426 1154l298 422l4 -4l-300 -422q0 2 -2 4zM428 66v4l596 22v-4zM428 884l656 -158v2l-654 160zM428 1974 q2 0 4 2l298 -400l-2 -4zM724 380l358 348l2 -2l-356 -350zM724 1576l174 434l4 -4l-174 -434zM726 1576l418 178l2 -2l-418 -180q-2 2 -2 4zM728 376v4h370v-4h-370zM728 376l296 -288q2 2 2 4l-296 288zM728 1572q0 2 2 4l418 -530l-2 -4zM1022 92l72 288l4 -4l-74 -288 q-2 2 -2 4zM1024 88v4l262 84l2 -4zM1070 2006l76 -254q2 0 2 2l-76 256zM1080 728l62 318l4 -4l-62 -316q-2 0 -4 2zM1084 726h346v2h-346v-2zM1084 726q2 0 4 2l14 -348l-4 -4zM1084 726l374 -318q2 2 2 4l-374 316zM1098 376v4l360 32v-4zM1098 376q2 2 2 4l190 -204 l-2 -4zM1142 1046l4 -4l284 582l-4 4zM1144 1754l236 256l2 -4l-236 -254q-2 0 -2 2zM1146 1042q2 2 2 4v708l-2 -2v-710zM1146 1042q0 2 2 4l284 -318l-2 -2zM1146 1752v2l284 -126v-4zM1284 176l4 -4l170 236q0 2 -2 4zM1426 1628l4 -4l46 382q-2 2 -2 4zM1430 726 l28 -318l4 4l-30 316z" />
<glyph unicode="g" d="M302 876v326v7q0 377 202 607q204 232 540 232q170 -6 340 -110t196 -236l-8 -70l-36 32l-30 58q-62 96 -187 172t-275 80q-308 0 -489 -212t-181 -558v-328q0 -362 187 -582t507 -220q226 0 387 63t219 139v580h-538l-38 38l38 38h612v-690q-64 -88 -239 -165t-441 -77 q-348 0 -557 239t-209 637zM348 672v4l488 52v-2zM348 1296v4l252 -74l-2 -4zM596 1226l200 402l2 -4l-200 -402q0 2 -2 4zM598 1222v4l548 -32v-2zM598 1222l4 4l238 -498l-4 -2zM598 1840l2 2l908 -116l-2 -4zM628 1836l518 -644q2 0 2 2l-516 644zM696 136l2 -2l138 592 q0 2 -2 2zM798 1624v4l708 98v-4zM834 728l310 466l2 -2l-310 -466q0 2 -2 2zM836 726v2l860 16v-2zM836 726l350 -706q2 0 2 2l-348 706zM1144 1194l2 -2l360 530q0 2 -2 4zM1184 36l2 -4l510 710q0 2 -2 2z" />
<glyph unicode="h" d="M318 38v1982l36 30l38 -30v-962h1264v962l40 30l34 -30v-1982q-2 -2 -16 -18l-18 -18l-40 36v946h-1264v-946l-34 -28zM364 1152l2 -4l448 372q0 2 -2 4zM368 172l844 272l2 -4l-844 -272q-2 2 -2 4zM380 172l386 600l4 -4l-388 -600q-2 2 -2 4zM392 176v2l766 -70v-2z M392 1956q0 2 2 4l420 -440l-4 -2zM392 1956v4l706 -66v-4zM428 1010q2 2 2 4l342 -242l-2 -4zM760 774q2 2 2 4l454 -334l-2 -4zM768 772l378 216l2 -4l-378 -216q-2 2 -2 4zM806 1518l288 376l4 -4l-290 -376q-2 2 -2 4zM810 1518v2l574 148v-4zM810 1518q2 0 4 2 l430 -470l-2 -4zM1096 1894l584 134v-4l-582 -134q-2 2 -2 4zM1098 1890q0 2 2 4l288 -226l-4 -4zM1146 1010l68 -570q0 2 2 4l-68 570zM1148 984q2 2 2 4l508 -198l-2 -2zM1152 106v2l522 204l2 -4zM1154 108l56 342l4 -4l-56 -340q-2 0 -4 2zM1210 444l444 346l2 -2 l-442 -348zM1214 440v4l480 -138v-2zM1230 1028l152 640l2 -4l-150 -640zM1382 1668l2 -4l296 360q0 2 -2 4zM1384 1664l4 4l284 -640l-2 -4z" />
<glyph unicode="i" d="M716 1706l284 334l4 -4l-286 -332q-2 0 -2 2zM718 1704l146 -548l4 4l-148 546zM718 1704l2 2l276 -146l-2 -2zM730 732l130 428l4 -4l-130 -428zM734 728l254 -348q2 2 2 4l-254 348zM734 740v4l262 -82l-2 -4zM800 100l184 284l4 -4l-186 -284q0 2 -2 4zM802 96 l192 -60l2 2l-192 62zM864 1156l114 -74q0 2 2 4l-114 74zM966 46v1966l38 32l36 -32v-1966q-2 -4 -18 -24l-18 -22zM1004 2044q0 2 2 4l322 -280l-2 -4zM1022 48l4 -4l220 538q-2 2 -4 2zM1022 1066l256 254l2 -4l-254 -252q-2 0 -4 2zM1024 48l2 -4l304 106v2zM1024 760 l254 46l2 -4l-254 -44zM1026 746l220 -176q0 2 2 4l-220 176zM1026 1064l254 -262q0 2 2 4l-254 260zM1030 1472l2 -4l294 296q-2 2 -2 4zM1032 1468q2 2 2 4l248 -152l-2 -4zM1242 584l4 -2l34 228l-4 4zM1246 582q2 2 4 2l84 -432l-4 -2zM1276 814l4 -4v506l-4 4v-506z M1276 1320l46 448l4 -4l-46 -448z" />
<glyph unicode="j" d="M456 572l34 44l40 -44q0 -246 129 -372t381 -126q212 0 346 140t134 386v1398q2 4 18 26l18 24l36 -50v-1398q0 -280 -152 -440t-400 -160q-276 0 -430 142t-154 430zM504 564v4l522 -124l-2 -4zM518 568l656 562l2 -4l-656 -562q-2 2 -2 4zM622 202l400 242l2 -4 l-400 -242q0 2 -2 4zM674 704l4 -4l370 914l-4 4zM678 700q0 2 2 4l346 -260l-2 -4zM1020 444l152 686l4 -4l-152 -686zM1022 444l394 302l2 -4l-394 -302q0 2 -2 4zM1024 440q2 2 2 4l304 -326l-2 -4zM1024 440v4l480 -62v-4zM1046 1616l510 60v-2l-508 -62q-2 2 -2 4z M1046 1618l488 322l2 -4l-488 -322q-2 2 -2 4zM1048 1614l128 -488l4 4l-130 488zM1174 1130l380 172l2 -2l-380 -174q0 2 -2 4zM1174 1130l380 578l2 -4l-380 -578q-2 2 -2 4zM1176 1126l242 -384q2 2 2 4l-242 384zM1176 1130l360 10v-4l-358 -10q-2 2 -2 4zM1414 746 l108 394l2 -4l-106 -394zM1416 746l118 120l2 -4l-118 -120q-2 2 -2 4zM1418 742l4 4l70 -364l-4 -4z" />
<glyph unicode="k" d="M374 136v1876l32 38l38 -38v-892h306l798 892l58 38l8 -64l-806 -910l854 -902l14 -80l-70 42l-874 916h-144h-144v-916l-34 -42zM422 204l272 566l2 -4l-270 -566zM422 1090l250 432l2 -4l-248 -430q-2 2 -4 2zM424 204l2 -4l486 226q0 2 -2 2zM426 200v4l768 -200v-2z M426 1072q0 2 2 4l272 -306l-4 -4zM426 1922v2l448 -18v-4zM426 1950l2 2l250 -430l-4 -4zM672 1522l200 384l2 -4l-200 -384q0 2 -2 4zM674 1518l4 4l128 -338l-2 -4zM674 1518v4l600 150v-4zM694 770l56 286l2 -2l-56 -288q0 2 -2 4zM696 766v4l338 -32v-2zM696 766l4 4 l214 -342l-2 -2zM874 1902v4l694 96v-2zM910 428l2 -2l138 324l-4 4zM912 426q0 2 2 2l698 -274v-4zM912 426l2 2l282 -424l-2 -2zM1192 4l418 150l2 -4l-418 -148q-2 0 -2 2z" />
<glyph unicode="l" d="M454 0v2016l38 32l38 -32v-1942h518h516l30 -38l-30 -36h-1110zM484 1798l200 -404l4 4l-202 404zM494 58l254 426l2 -4l-252 -426zM498 902l252 -422l4 4l-254 420zM498 2002l434 -324q0 2 2 4l-434 324zM518 1730v4l414 -52v-4zM524 1150l158 248l2 -4l-158 -248 q0 2 -2 4zM526 1146q2 2 2 4l448 -200l-2 -4zM530 2002v4l648 -40v-4zM682 1398l2 -4l494 568q0 2 -2 4zM684 1394l4 4l292 -448l-2 -4zM684 1394l366 -282q2 2 2 4l-366 282zM684 1394v4l682 -26v-4zM748 484l226 466l4 -4l-228 -466q0 2 -2 4zM750 480l552 -114v2 l-550 116zM750 480l4 4l336 -406l-4 -4zM932 1678q0 2 2 4l434 -310l-2 -4zM974 950l74 166l2 -4l-72 -166zM978 946v4l388 -90v-4zM978 946q2 2 2 4l326 -582l-4 -2zM1048 1116l2 -4l316 256q-2 2 -2 4zM1050 1112q2 2 2 4l316 -256l-2 -4zM1084 58l216 310l2 -2l-216 -312 q0 2 -2 4zM1178 1962l188 -594q2 2 2 4l-186 594zM1298 368l4 -2l64 490l-4 4zM1302 366q2 0 2 2l242 -310l-2 -4zM1362 860l4 -4v512l-4 4v-512z" />
<glyph unicode="m" d="M112 36v1958l48 54l56 -54q50 -116 402 -926l404 -926l808 1852l50 54l56 -54v-1958l-38 -36l-34 36v1840h-4l-810 -1840h-56l-806 1832h-4v-1832l-36 -36zM156 130l4 -4l460 814l-2 2zM182 1156l2 -4l174 450l-4 4zM184 170v4l748 2v-4zM184 868q2 2 4 2l218 -312l-4 -4 zM184 1152q2 2 2 4l436 -214l-2 -2zM402 554q2 2 2 4l552 -382l-2 -4zM1106 198v4l330 32l2 -4zM1374 798l500 570l2 -4l-500 -568zM1376 796l62 -566q0 2 2 4l-60 564zM1376 796q0 2 2 2l500 -240l-2 -4zM1436 234l438 324l2 -4l-438 -324q-2 2 -2 4zM1438 230v4l440 -180 l-2 -4zM1614 1320l262 44v4l-262 -46v-2z" />
<glyph unicode="n" d="M316 44v1968l36 36l38 -36l1266 -1834l4 2v1832l38 36l36 -36v-1968q-2 -2 -20 -22l-18 -22l-36 44l-1266 1840l-4 -2v-1838l-38 -44zM378 130v2l1284 -84l-2 -4zM388 132l2 -2l824 562q0 2 -2 4zM388 414l2 -2l398 900l-2 2zM390 412l446 22v4l-446 -24v-2zM390 1236 l398 76v2l-398 -74v-4zM390 1236l224 -312q0 2 2 4l-222 312zM390 1558q2 2 2 4l398 -248l-2 -2zM390 1986v2h1270v-2h-1270zM410 1986l466 -370q0 2 2 4l-466 368zM614 924l600 -232q2 2 2 4l-602 232v-4zM836 434l824 -390q2 2 2 4l-824 390zM874 1620l812 378l2 -4 l-812 -378q0 2 -2 4zM876 1616l90 -438l4 4l-90 438zM876 1616q0 2 2 4l784 -526l-2 -4zM966 1178l694 -88q2 2 2 4l-696 88v-4zM1386 570l272 524l2 -4l-270 -524z" />
<glyph unicode="o" d="M172 876v298q0 400 228 638t623 238t625 -238t230 -638v-298q0 -400 -229 -638t-624 -238t-625 238q-228 236 -228 631v7zM246 1332l284 -342q0 2 2 4l-284 340zM256 876q0 -366 202 -584t568 -218t567 218t201 584v300q0 364 -203 582t-568 218t-566 -218t-201 -582 v-300zM260 768l266 226l4 -4l-268 -226q-2 2 -2 4zM262 764v4l664 -56v-2zM426 1720v4l404 -122v-4zM526 994l4 -4l300 608l-4 4zM530 990v4l398 -282l-2 -2zM826 96l4 -4l96 618q-2 2 -4 2zM828 1602l292 372l4 -4l-294 -372q-2 2 -2 4zM830 1598v4l760 160l2 -4zM830 1598 v4l1000 -268l-2 -2zM830 1598l256 -574q0 2 2 4l-256 574zM924 712l158 316l4 -4l-160 -314zM926 710l2 2l402 -206v-4zM926 710q2 2 4 2l368 -598l-2 -4zM1084 1028l744 306v-2l-742 -308q-2 2 -2 4zM1086 1024l244 -522q0 2 2 4l-244 522zM1292 114l4 -4l34 392l-4 4z M1326 506l4 -4l498 830q0 2 -2 2zM1328 506l454 206v-2l-452 -208q-2 2 -2 4zM1330 502q0 2 2 4l198 -312l-2 -4z" />
<glyph unicode="p" d="M390 46v2002h624q318 0 482 -153t164 -419t-164 -418t-482 -152h-550v-430v-430l-36 -46zM448 62l2 -4l352 456q-2 2 -4 2zM448 62l776 518l2 -4l-776 -518q0 2 -2 4zM462 938l4 -4l272 510q0 2 -2 4zM464 980h274h276q290 0 431 139t141 355q0 222 -140 361t-432 139 h-550v-994zM466 934q2 2 2 4l328 -436l-4 -4zM466 1988q2 2 2 4l274 -544l-4 -4zM736 1448l260 530l4 -4l-262 -530q0 2 -2 4zM738 1444v4l596 -12v-4zM738 1444q2 2 2 4l638 -380v-4zM790 502l232 422l2 -2l-232 -424q-2 2 -2 4zM792 498v4l434 78v-4zM1000 1974q0 2 2 4 l334 -542l-2 -4zM1022 906l204 -330l4 4l-204 328zM1222 580l40 358l2 -4l-38 -358zM1224 580l178 256l2 -4l-178 -256q-2 2 -2 4zM1264 934l140 -102q2 2 2 4l-140 102zM1332 1436l262 254l2 -4l-262 -254q-2 2 -2 4zM1334 1432q2 2 2 4l72 -600l-4 -4z" />
<glyph unicode="q" d="M390 1056v252q0 338 170 539t463 201t465 -201t172 -539v-252q-2 -224 -79 -390t-223 -258l258 -348l12 -60l-52 12l-272 356q-70 -20 -136 -36t-142 -16q-296 0 -466 201t-170 539zM452 1028l254 242l2 -4l-254 -242q-2 2 -2 4zM454 1024v4l286 48v-4zM454 1024q0 2 2 4 l286 -198l-2 -2zM454 1056q0 -310 150 -493t422 -183t421 183t149 493v254q0 308 -151 492t-422 184t-420 -184t-149 -492v-254zM454 1336v4l254 -70v-4zM484 806l256 22v2l-256 -20v-4zM566 1750q0 2 2 4l316 -226l-2 -2zM566 1750q0 2 2 4l140 -484l-4 -4zM600 566l4 -4 l136 266q-2 0 -2 2zM604 562v4l350 -22v-4zM706 1270l2 -4l174 260l-2 2zM708 1266l4 4l32 -194l-4 -4zM708 1266v4l338 -96v-4zM736 830l4 -2v244l-4 4v-246zM740 828v2h284v-2h-284zM740 828q2 0 4 2l212 -286l-2 -4zM740 1072v4l304 98l2 -4zM740 1072q2 2 2 4l284 -246 l-2 -2zM794 408l2 -4l158 136q-2 2 -2 4zM880 1528l142 492l2 -4l-142 -490q-2 0 -2 2zM880 1528l288 188l2 -4l-288 -186zM882 1526q2 0 2 2l326 -238l-2 -4zM882 1526q2 0 4 2l162 -354l-2 -4zM950 544l70 286l4 -2l-70 -288zM954 540v4l406 -84v-4zM1020 830l4 -2l22 342 l-4 4zM1022 830l260 92v-4l-258 -90q-2 0 -2 2zM1024 828l2 2l332 -350l-2 -4zM1024 1986l146 -274l4 4l-148 274zM1044 1174l162 116l2 -4l-162 -116q-2 2 -2 4zM1046 1170q0 2 2 4l236 -252l-2 -4zM1168 1716l224 164l2 -2l-224 -166q0 2 -2 4zM1170 1712q2 2 2 4 l450 -326l-2 -4zM1170 1712l4 4l38 -426l-4 -4zM1208 1286v4l410 100l2 -4zM1208 1286l4 4l74 -368l-4 -4zM1208 1286q2 2 2 4l302 -200l-2 -4zM1280 922l228 168l2 -4l-228 -168q0 2 -2 4zM1282 918v4l316 -60l-2 -2zM1282 918l4 4l76 -462l-2 -4zM1506 1090l110 300l4 -4 l-110 -300zM1510 1086q0 2 2 4l88 -228l-4 -2z" />
<glyph unicode="r" d="M354 56v1992h634q322 0 488 -133t166 -401q0 -170 -104 -306t-286 -176l-56 -18q44 -94 256 -478t244 -464v-72l-62 34q-48 76 -268 482l-258 472q-2 6 -4 4h-2h-70h-606v-468v-468l-40 -56zM390 1858l4 4l214 -350l-4 -4zM396 116l4 -4l246 486q-2 2 -2 4zM398 116 l1064 268v-4l-1062 -268q-2 2 -2 4zM426 1066h274h274q312 0 453 126t141 322q0 228 -143 344t-437 116h-562v-908zM434 1028l4 -4l166 484q0 2 -2 4zM438 1024q0 2 2 4l210 -426l-4 -4zM602 1512l336 510l2 -2l-336 -512q0 2 -2 4zM604 1508v4l926 296l2 -4zM604 1508l4 4 l496 -470l-2 -2zM646 598v4l620 152l2 -2zM646 598v4l850 -228l-2 -2zM1066 1042l2 -2l464 764l-4 4z" />
<glyph unicode="s" d="M320 590l36 40l38 -40q0 -276 197 -396t464 -120t433 118t166 314q0 192 -134 300t-480 203t-501 209t-155 341t183 358t479 131t479 -161t183 -429l-36 -40l-38 40q0 228 -161 372t-429 144q-276 0 -431 -119t-155 -292t127 -283t477 -198q336 -90 502 -213t166 -363 t-190 -373t-486 -133q-304 0 -519 138t-215 452zM378 498v4l934 422l2 -4zM398 508l2 2l626 -444l-2 -2zM508 1304v4l1014 474l2 -4zM544 1322v2l642 -50v-4zM748 1954v4l810 -176v-4zM1022 66l2 -2l290 856l-4 4zM1022 66l596 732l2 -4l-596 -730q0 2 -2 2zM1182 1274 l338 508l4 -4l-338 -508zM1186 1270q0 2 2 4l34 -246l-2 -4zM1218 1028l372 272l2 -4l-372 -272q-2 2 -2 4zM1524 1778l68 -482q0 2 2 4l-68 482zM1592 1296q0 2 2 4l30 -502l-4 -4z" />
<glyph unicode="t" d="M134 2008l46 40h1534l48 -42l-48 -32h-366h-364v-1932l-38 -42l-36 42v1932h-730zM346 1974q0 2 2 4l584 -496l-2 -4zM346 1974l238 -1038q2 2 2 4l-238 1038zM448 388l2 -4l480 360q-2 2 -2 4zM448 388l132 552l4 -4l-134 -552q0 2 -2 4zM450 384q2 2 2 4l458 -220v-2z M580 940l4 -4l326 560l-4 4zM584 936q0 2 2 4l346 -192l-2 -4zM968 150l558 314l2 -4l-558 -314q0 2 -2 4zM980 748l4 -4l208 540q0 2 -2 2zM980 1626l210 368l2 -4l-208 -368zM982 748l856 250l2 -4l-856 -250q0 2 -2 4zM984 744q0 2 2 4l544 -284l-2 -4zM984 1622 l208 -338q2 2 4 2l-210 340zM984 1622v4l498 84v-4zM1184 1974q0 2 2 4l298 -268l-2 -4zM1190 1286l296 430l2 -2l-296 -430q0 2 -2 2zM1192 1284l648 -290q0 2 2 4l-648 288zM1192 1284v2l714 320l2 -4zM1480 1710l222 268l2 -4l-222 -268q-2 2 -2 4zM1482 1706q0 2 2 4 l430 -104v-4zM1526 464l310 534l4 -4l-312 -534q-2 2 -2 4zM1704 1974l4 4l202 -372l-2 -4zM1836 998l68 608l4 -4l-68 -608z" />
<glyph unicode="u" d="M342 662v1336l38 50l36 -50v-1336q0 -282 167 -435t441 -153t441 152t167 438v1334l36 50l38 -50v-668v-668q0 -326 -186 -494t-496 -168t-496 168t-186 494zM390 1992q0 2 2 4l286 -140l-2 -4zM412 1066l262 790l2 -4l-260 -788q-2 0 -4 2zM416 1064v2l656 126v-4z M502 322l4 -2l566 868q0 2 -2 4zM504 322l820 108v-2l-818 -108zM676 1852l4 4l396 -664l-4 -4zM676 1852q2 2 2 4l956 -294l-2 -2zM676 1852v4l974 140v-4zM1072 1188v4l558 370l2 -2zM1072 1188l4 4l558 -416l-2 -2zM1072 1188l4 4l252 -762l-4 -2zM1322 430l308 346l2 -2 l-308 -346q0 2 -2 2zM1324 428q2 2 4 2l140 -200l-2 -4z" />
<glyph unicode="v" d="M252 1998l30 50l48 -50l656 -1762q2 -8 18 -56l18 -56h6l36 112l656 1762l50 50l28 -50l-730 -1952l-44 -46l-44 46zM344 1958l2 2l632 -140l-2 -4zM632 1180l342 640l2 -4l-340 -640zM636 1176v4l774 -8v-4zM826 630l2 -2l582 540q0 2 -2 4zM976 1816v4l774 180v-4z M976 1816q2 2 2 4l616 -230v-4zM976 1816l4 4l454 -678l-4 -4z" />
<glyph unicode="w" d="M2 1944l30 44l40 -44l358 -1422q4 -20 36 -150l38 -148h6l76 298l406 1422l34 44l36 -44l406 -1422l74 -298h4l78 298l356 1422l38 44l32 -44l-464 -1840l-34 -44l-38 44l-428 1534l-58 188h-2l-58 -188l-430 -1534l-32 -44l-40 44zM86 1888v4l898 26v-2zM86 1888v4 l838 -238l-2 -4zM86 1888l448 -442l4 4l-450 442zM278 1118l254 332l2 -4l-254 -330zM398 638l2 -4l322 368q0 2 -2 4zM398 638l2 -4l134 812q0 2 -2 4zM534 1446l388 204v4l-388 -204v-4zM534 1446l4 4l194 -460l-4 -2zM1074 1902v2l906 44v-4zM1074 1902l316 -272l2 2 l-316 272zM1266 1220l4 -4l120 414q-2 2 -4 2zM1268 1220l598 276v-2l-596 -278q-2 2 -2 4zM1270 1216q0 2 2 4l452 -304l-2 -2zM1388 1632l2 -2l590 314q-2 2 -2 4zM1390 1630v2l478 -136l-2 -2zM1452 566l4 -4l266 352q-2 0 -2 2z" />
<glyph unicode="x" d="M194 1672l208 284l2 -4l-208 -284q-2 2 -2 4zM196 1668q0 2 2 4l530 -232v-2zM196 1668q2 2 2 4l222 -826l-4 -4zM306 124l672 952l-640 904l4 70l68 -46l610 -874q38 56 308 438l306 436l66 46l4 -70l-638 -904l670 -950l-14 -58l-60 40l-642 914l-640 -914l-70 -50z M404 1968v4l1254 32v-4zM406 222l6 624l4 -4l-6 -624zM410 150v2l930 -148l-2 -2zM412 846l312 594l4 -2l-312 -596zM414 846l568 192v-4l-566 -192q0 2 -2 4zM434 1970q0 2 2 2l586 -300l-2 -4zM664 512v4l346 48v-4zM848 1346l4 -4l168 326q0 2 -2 4zM1006 564l4 -4 l10 462q-2 0 -4 2zM1010 560v4l468 -132v-4zM1010 560q0 2 2 4l330 -560l-4 -2zM1020 1668v4l608 332l2 -4zM1020 1668l4 4l88 -462l-4 -4zM1020 1668v4l386 12v-4zM1272 744l282 216l2 -4l-282 -216q0 2 -2 4zM1336 4l86 442l4 -4l-88 -440zM1424 1604l4 4l130 -648l-2 -4z M1484 482l2 -4l70 478l-4 4zM1486 478v4l318 -4v-4zM1552 960l114 976l4 -4l-114 -976zM1554 960l2 -4l296 210q0 2 -2 2zM1556 956q2 2 2 4l250 -482l-4 -4zM1658 1984q2 2 2 4l196 -820l-4 -2zM1802 478l48 690l2 -2l-48 -692q-2 2 -2 4z" />
<glyph unicode="y" d="M204 1518l150 452l4 -4l-152 -452q-2 2 -2 4zM206 1514l542 -722l4 4l-544 722zM206 1514q0 2 2 4l558 -138l-2 -4zM342 1970v78l74 -56l642 -1078q2 -4 16 -34l18 -32l36 66l644 1078l62 56l12 -80l-716 -1180v-736l-36 -52l-36 52v736zM442 1950v2l362 -130l-2 -4z M600 240l146 556l2 -4l-144 -556zM602 240l454 304l2 -4l-454 -304q-2 2 -2 4zM604 236v4l454 64v-4zM746 796l186 328l4 -4l-188 -328q0 2 -2 4zM748 792l4 4l308 -252l-2 -4zM762 1360l38 462l2 -4l-38 -462q0 2 -2 4zM768 1400v4l462 156l2 -4zM802 1818v4l944 130v-2z M802 1818q2 2 2 4l430 -262l-2 -4zM920 1104l308 456l4 -4l-310 -454q0 2 -2 2zM1128 322l354 596l2 -2l-354 -598q0 2 -2 4zM1130 318v4l486 192v-2zM1130 788v4l354 126v-2zM1232 1556v4l362 30v-2zM1480 918l112 640l2 -4l-110 -638q-2 0 -4 2zM1482 918l2 -2l300 564 q-2 2 -2 4zM1484 916q2 0 4 2l132 -404l-4 -2zM1526 1582l2 2l258 -100l-2 -4zM1752 1950q2 2 4 2l32 -468l-4 -4z" />
<glyph unicode="z" d="M236 504l432 826l4 -4l-432 -826zM238 504l504 216l2 -4l-504 -216q-2 2 -2 4zM240 500q0 2 2 4l78 -436l-2 -4zM296 0v62l1308 1912h-1252l-56 36l56 38h1356v-54l-1308 -1918h678h676l60 -34l-60 -42h-1458zM384 1974q2 2 4 2l286 -646l-2 -4zM668 1330l384 662l4 -2 l-384 -664zM670 1330l770 410v-4l-768 -410q-2 2 -2 4zM672 1326v4l384 -156v-2zM672 1326l4 4l72 -610l-4 -4zM754 692q2 0 2 2l220 -626l-2 -4zM970 68l526 748l4 -4l-526 -748zM970 68l158 1084l4 -2l-158 -1086zM1046 1974q0 2 2 2l394 -236l-2 -4zM1132 1150q2 0 2 2 l368 -336l-2 -4zM1380 1512l120 -700q0 2 2 4l-118 700zM1496 816l4 -4l180 1178q-2 2 -4 2zM1500 812q0 2 2 4l246 -758l-2 -4z" />
<glyph unicode="&#x2000;" horiz-adv-x="1025" />
<glyph unicode="&#x2001;" horiz-adv-x="2050" />
<glyph unicode="&#x2002;" horiz-adv-x="1025" />
<glyph unicode="&#x2003;" horiz-adv-x="2050" />
<glyph unicode="&#x2004;" horiz-adv-x="683" />
<glyph unicode="&#x2005;" horiz-adv-x="512" />
<glyph unicode="&#x2006;" horiz-adv-x="341" />
<glyph unicode="&#x2007;" horiz-adv-x="341" />
<glyph unicode="&#x2008;" horiz-adv-x="256" />
<glyph unicode="&#x2009;" horiz-adv-x="410" />
<glyph unicode="&#x200a;" horiz-adv-x="113" />
<glyph unicode="&#x202f;" horiz-adv-x="410" />
<glyph unicode="&#x205f;" horiz-adv-x="512" />
<glyph unicode="&#x25fc;" horiz-adv-x="2050" d="M0 0v2050h2050v-2050h-2050z" />
</font>
</defs>
</svg>
