<?xml version="1.0" standalone="no"?>
<!DOCTYPE svg PUBLIC "-//W3C//DTD SVG 1.1//EN" "http://www.w3.org/Graphics/SVG/1.1/DTD/svg11.dtd" >
<svg xmlns="http://www.w3.org/2000/svg">
<metadata></metadata>
<defs>
<font id="new_yorkerregular" horiz-adv-x="708" >
<font-face units-per-em="2048" ascent="1638" descent="-410" />
<missing-glyph horiz-adv-x="647" />
<glyph horiz-adv-x="0" />
<glyph unicode="&#xd;" horiz-adv-x="647" />
<glyph unicode=" "  horiz-adv-x="647" />
<glyph unicode="&#x09;" horiz-adv-x="647" />
<glyph unicode="&#xa0;" horiz-adv-x="647" />
<glyph unicode="!" horiz-adv-x="559" d="M88 188q0 76 54.5 130.5t129.5 54.5q76 0 130.5 -54.5t54.5 -130.5t-53.5 -129t-131.5 -53q-74 0 -129 53.5t-55 128.5zM106 1270q0 18 4.5 72.5t4.5 60.5q0 39 41 50t110 11q66 0 120 -17t54 -58q-25 -197 -47 -365t-69 -369q-4 -47 -10.5 -81.5t-34.5 -41.5l-9 -4 q-35 0 -54 41t-19 78q-12 94 -58 328q-33 166 -33 295z" />
<glyph unicode="&#x22;" horiz-adv-x="718" d="M141 1452q0 66 16.5 90.5t49.5 24.5t49 -25.5t16 -89.5v-49l-32 -418q-4 -25 -8.5 -45t-24.5 -20q-18 0 -23.5 21.5t-5.5 43.5l-33 418q-2 8 -2 14q-2 16 -2 35zM422 1403v49q0 66 16.5 90.5t48.5 24.5q33 0 49.5 -26t16.5 -89q0 -37 -4 -49l-33 -418q0 -33 -7 -49 t-22 -16q-20 0 -25 28.5t-7 36.5z" />
<glyph unicode="#" horiz-adv-x="1091" d="M57 520h226l41 289h-209l-4 90h225l63 432h103l-62 -432h267l61 432h102l-61 -432h192l9 -90h-213l-41 -289h192l8 -90h-213l-61 -430h-102l61 430h-262l-64 -430h-102l57 430h-209zM387 520h266l41 289h-262z" />
<glyph unicode="$" horiz-adv-x="1089" d="M49 377l29 8q51 -143 147 -242q111 -113 244 -112v600q-209 117 -252 151q-123 104 -123 258q0 145 112.5 234.5t262.5 89.5v199h45v-199q195 0 305 -174q37 -57 72 -176l-25 -8q-39 111 -137 193.5t-215 98.5v-522q188 -88 289 -174q121 -104 121 -217q0 -174 -117 -287 q-106 -104 -293 -133v-196h-45v196q-227 0 -346 205q-39 68 -74 207zM246 1085q0 -98 69 -167q43 -44 154 -105v485q-92 0 -157.5 -59t-65.5 -154zM514 31q102 0 178 80t76 186q0 104 -80 186q-59 61 -174 119v-571z" />
<glyph unicode="%" horiz-adv-x="1546" d="M18 952q0 168 95.5 286t238.5 118q147 0 228.5 -110.5t81.5 -284.5q-20 -135 -50 -203q-88 -205 -280 -205q-143 0 -228.5 112.5t-85.5 286.5zM117 979q0 -184 82 -289q66 -84 137 -84q94 2 153.5 107t59.5 248q0 154 -45 241q-51 98 -156 98q-121 0 -182 -112 q-49 -88 -49 -209zM340 -10l754 1353h82l-756 -1353h-80zM842 395q0 170 93 287t241 117q145 0 227 -110.5t82 -282.5q-20 -137 -49 -205q-88 -205 -281 -205q-143 0 -228 112.5t-85 286.5zM938 422q0 -182 84 -289q66 -84 137 -84q96 2 153.5 106t57.5 251q0 152 -45 239 q-51 100 -156 100q-121 0 -182 -112q-49 -88 -49 -211z" />
<glyph unicode="&#x26;" horiz-adv-x="1644" d="M84 410q0 176 141 305q121 111 310 159q-150 102 -179 132q-90 88 -90 194q0 125 109 205q98 72 229 72q168 0 260 -64q113 -76 113 -237q0 -119 -80 -191q-45 -39 -186 -106q90 -92 176 -230q41 -66 141 -248q53 84 115 238q70 178 69 264q0 51 -33.5 81t-93.5 44 q63 6 101 8q111 8 166 8q29 0 28 -34q0 -31 -42 -118t-85 -173q-57 -123 -88 -187q-53 -106 -104 -184q63 -129 178 -201q104 -66 254 -88v-28q-33 4 -126 8t-126 4q-119 0 -252 -12l-69 155q-94 -88 -199 -138t-223 -50q-180 0 -297 116.5t-117 295.5zM279 455 q0 -129 90 -228q98 -106 247 -106q70 0 149 33t130 82q-127 309 -170 393q-59 115 -137 209q-139 -41 -224 -140.5t-85 -242.5zM449 1196q0 -109 104 -203q35 -31 104 -73q86 55 101 69q59 62 59 162q0 113 -47 184q-53 80 -149 80q-82 0 -127 -66.5t-45 -152.5z" />
<glyph unicode="'" horiz-adv-x="487" d="M168 1403v49q0 63 16.5 89t46.5 26q33 0 48.5 -23.5t15.5 -91.5q0 -37 -4 -49l-33 -418q0 -33 -7 -49t-20 -16q-20 0 -24 25.5t-6 39.5z" />
<glyph unicode="(" horiz-adv-x="604" d="M78 768q0 186 119 365q100 152 268 274l12 -14q-139 -143 -205.5 -293t-66.5 -332q0 -184 76 -346q69 -146 200 -277l-16 -12q-123 104 -189 176q-96 106 -143 207q-55 119 -55 252z" />
<glyph unicode=")" horiz-adv-x="604" d="M98 1368l21 16q180 -154 266 -278q121 -175 121 -363q0 -182 -121 -360q-98 -145 -270 -274l-13 12q143 147 210 293.5t67 328.5q0 190 -73 343t-208 282z" />
<glyph unicode="*" horiz-adv-x="1114" d="M154 1067q0 33 22.5 55.5t59.5 22.5q29 0 165 -84q78 -47 134 -66q0 59 -26 157.5t-26 141.5q0 39 20.5 63.5t53.5 24.5t54.5 -25.5t21.5 -62.5q0 -29 -35 -172q-18 -76 -18 -127q51 16 89 36t95 59q70 51 115 51q79 0 79 -74q0 -78 -152.5 -89t-209.5 -30 q37 -53 149 -149q84 -72 84 -121q0 -29 -20.5 -49.5t-50.5 -20.5q-72 0 -110 117t-91 193q-35 -49 -53.5 -84t-38.5 -99q-45 -127 -113 -127q-29 0 -51 22.5t-22 51.5q0 47 88 119q115 92 151 147q-61 20 -98 26.5t-109 6.5q-158 0 -157 86z" />
<glyph unicode="+" horiz-adv-x="1253" d="M180 623v118h387v392h119v-392h387v-118h-387v-392h-119v392h-387z" />
<glyph unicode="," horiz-adv-x="509" d="M102 170q0 68 54 115q43 37 94 37q27 0 63.5 -15.5t57 -36t29 -47t8.5 -57.5q0 -18 -4.5 -46t-9.5 -60.5t-15 -54t-39 -52.5t-103.5 -71t-101.5 -40l-8 4l12 17q31 29 62 57q14 18 20 45t12 49q-25 0 -48 14.5t-46 39.5q-37 51 -37 102z" />
<glyph unicode="-" horiz-adv-x="1413" d="M152 446q0 4 11 25t21 41q55 90 162 135q61 25 119 25q55 0 139 -25q47 -14 94 -29q104 -43 156.5 -58t101.5 -15l41 4q68 0 96.5 6t65.5 39q23 18 44.5 27.5t37.5 9.5q45 0 45 -49q0 -29 -8 -41q-16 -29 -30.5 -47.5t-51.5 -42.5q-43 -33 -69.5 -43.5t-82.5 -10.5 l-43 -4q-63 0 -129 23q-186 66 -210 67q-84 14 -168 29h-29q-41 -4 -135 -47q-49 -23 -68 -23q-18 0 -40.5 -3t-45.5 -5q-14 0 -20 6q-2 2 -4 6z" />
<glyph unicode="." horiz-adv-x="460" d="M96 158q0 57 41 98t99 41q57 0 98 -41t41 -98q0 -55 -41 -96.5t-98 -41.5t-98.5 39t-41.5 99z" />
<glyph unicode="/" horiz-adv-x="1044" d="M78 -18l784 1474h78l-772 -1474h-90z" />
<glyph unicode="0" horiz-adv-x="1302" d="M63 735q0 311 174.5 528.5t442.5 217.5q270 0 424 -209q147 -198 147 -520q-16 -98 -30 -195q-55 -225 -166 -362q-160 -197 -412 -197h-8q-258 0 -415 209t-157 528zM244 784q0 -340 153 -534q121 -154 254 -154l6 4q174 0 283 197q102 185 102 455q0 285 -84 446 q-94 182 -286 182h-8q-215 0 -330 -209q-90 -164 -90 -387z" />
<glyph unicode="1" horiz-adv-x="1302" d="M461 1188q0 27 26 76q20 35 27 47q18 25 41 41t86 49q51 23 80 22q27 0 34 -19.5t7 -64.5v-270l-4 -532q0 -61 6 -207t6 -230v-12q0 -25 -12.5 -37t-40.5 -24q-8 -2 -22.5 -7.5t-20.5 -5.5q-18 0 -42 12.5t-44 28.5q-53 41 -53 103l4 16l4 318q0 109 -8.5 319.5 t-8.5 306.5q-2 10 -23.5 15.5t-25.5 9.5q-16 25 -16 45z" />
<glyph unicode="2" horiz-adv-x="1302" d="M129 1014q0 152 127 249t289 97h28q172 0 289 -137.5t117 -323.5q0 -129 -47 -218t-158 -165q-133 -61 -266 -123q-76 -63 -121 -119q-55 -68 -55 -116q16 0 106 34.5t152 34.5q39 0 139 -43q51 -23 94 -22q106 0 158 37q51 45 90 77q16 16 42 31t48 15l33 -9 q16 -16 16 -32q0 -23 -20.5 -54.5t-44.5 -56.5q-80 -90 -148.5 -127t-173.5 -49h-37q-53 0 -118 29q-150 66 -213 65h-45q-35 0 -52 -4q-41 -14 -90 -29q-37 -6 -73 -12q-27 0 -40.5 12.5t-13.5 28.5l4 29q25 86 80 172q45 72 127 166q123 106 246 213q63 86 74 100 q61 90 61 184v21q0 115 -35 196q-45 106 -133 117h-28q-86 0 -165 -66.5t-79 -142.5l8 -41q16 -55 48 -96t73 -41l20 4q41 12 67 14t89 2q-6 -41 -20.5 -70.5t-45.5 -76.5q-47 -68 -143 -68l-57 7q-82 14 -142.5 107t-60.5 200z" />
<glyph unicode="3" horiz-adv-x="1302" d="M197 252q0 25 9 51.5t27 56.5q27 41 62 56q12 6 78 18h20q57 0 58 -41q0 -16 -13 -28q-27 -27 -32 -68l-5 -16q0 -43 45 -82q61 -55 78 -66q43 -29 88 -29l33 5q100 14 158 71q68 70 67 193v41q0 117 -49 180q-55 72 -192 106q-66 8 -66 31q0 10 13.5 17.5t44.5 15.5 q63 25 105 85t42 136q0 90 -29 148q-35 72 -102 71q-55 0 -103.5 -44t-48.5 -99l4 -25q6 -23 37 -43t33 -41v-28l-8 -41q-29 -53 -105 -54h-8q-57 0 -114.5 57.5t-57.5 110.5l8 39q51 121 138 185q94 70 217 69h20q135 0 236 -61q113 -70 133 -193l4 -59q0 -57 -23.5 -103.5 t-70.5 -89.5q100 -59 155.5 -144t55.5 -198v-20q0 -184 -156 -307q-147 -117 -346 -117h-45q-117 0 -204 32.5t-146 110.5q-18 25 -31.5 55.5t-13.5 55.5z" />
<glyph unicode="4" horiz-adv-x="1302" d="M150 446q199 215 397 433q213 227 362 350q16 16 64 28q14 2 43 9l-629 -660h371v379l196 133h13v-516h196v-184h-196l-4 -133l4 -267q0 -12 -34 -20t-73 -8q-45 0 -73.5 7t-28.5 21l-4 177l4 219h-600z" />
<glyph unicode="5" horiz-adv-x="1302" d="M66 389q0 20 20 62q33 57 107 57h16q47 0 81 -31t44 -76q35 -141 110 -231q88 -106 209 -107l13 5q135 0 215 131q72 117 71 276v17q0 123 -43 212t-137 130q-45 18 -73.5 27t-53.5 9q-29 0 -65 -12q-6 -2 -48 -33q-20 -14 -34 -16l-21 -4q-33 0 -59.5 13t-26.5 40 q0 152 3 213.5t11.5 131t58.5 87t58 21.5q43 12 82 12q31 0 102.5 -18.5t114.5 -18.5q37 0 113 -18q43 -10 65 -11q14 0 37 5.5t38.5 8.5t46 9t42.5 6q33 0 33 -20q0 -18 -29 -70q-12 -20 -29.5 -67.5t-35.5 -59.5q-45 -33 -103 -33q-45 0 -106.5 20.5t-120.5 41.5 q-16 6 -51 33.5t-51 27.5l-13 -4q-29 -14 -47 -45t-18 -61q0 -51 37 -88q25 -16 33 -17q12 0 83 31q35 14 60 14q176 0 317 -164q127 -147 127 -297q0 -236 -183 -391t-429 -155h-8q-209 0 -353 94q-156 102 -206 301z" />
<glyph unicode="6" horiz-adv-x="1302" d="M78 524l8 82q27 209 256 424q205 190 512 338q29 12 74 25.5t78 13.5q55 0 71 -23q2 -2 4 -16q0 -18 -39 -45q-31 -20 -69 -41q-201 -117 -289 -184q-141 -106 -223 -226q-94 -137 -121 -307q-4 -33 -12.5 -106.5t-8.5 -93.5q0 -80 28 -140.5t93 -95.5 q45 -20 103.5 -34.5t113.5 -14.5q70 0 134.5 17.5t119 53t88 100t33.5 134.5q0 49 -21.5 97t-65.5 84t-103 36q-33 0 -70 -12q-18 -6 -74 -45q-47 -33 -73 -33q-8 0 -35 14.5t-47.5 45t-20.5 63.5q0 39 33 76q70 72 136.5 97.5t162.5 25.5h41q141 0 246.5 -81t124.5 -212 v-58q0 -141 -97 -254q-80 -92 -208 -149q-94 -45 -189.5 -71.5t-175.5 -26.5q-63 0 -123.5 15t-122.5 50q-135 80 -203.5 202t-68.5 275z" />
<glyph unicode="7" horiz-adv-x="1302" d="M76 1225q0 23 8 39q4 8 41 51q23 27 51.5 36t67.5 9l112 -4h9q96 0 208 -45q154 -61 199 -70.5t97.5 -19t88.5 -9.5q33 0 69 7.5t73 21.5q18 6 41.5 11t36.5 5q36 1 36 -24q0 -31 -40 -98q-61 -98 -218 -299q-61 -78 -104 -160q-74 -145 -117 -261t-88 -290 q-12 -76 -94 -107q-37 -18 -86 -18q-66 0 -111 51q-25 29 -30 39q-14 23 -15 43l13 41q49 104 92 174q113 176 157 266q27 51 107 140q188 207 209 239q10 16 19.5 35t9.5 29q0 20 -25 20l-62 -12q-31 -4 -63.5 -8t-42.5 -4q-35 0 -75 6t-64.5 11t-114.5 75q-39 31 -65 31 l-33 -9q-25 -16 -37 -70.5t-29 -68.5q-25 -27 -35 -37q-18 -18 -32 -18q-10 0 -28.5 11t-29.5 17q-20 14 -20 39l4 62l-8 41q-6 14 -43 35.5t-39 46.5z" />
<glyph unicode="8" horiz-adv-x="1302" d="M244 438q0 127 100 238q82 90 205 145q-86 55 -135 111q-72 80 -72 158q0 131 107 208q96 70 231 70q129 0 219 -65q104 -76 105 -201q0 -96 -56.5 -165t-148.5 -108q121 -88 186 -159q109 -119 109 -228q0 -184 -128 -320t-298 -136q-162 0 -293 139t-131 313zM444 463 q0 -170 54 -285q66 -139 190 -139q100 0 146 104q34 83 34 226q0 131 -94 252q-55 72 -180 176q-72 -31 -111 -131.5t-39 -202.5zM561 1176l4 -41q0 -84 60 -160q43 -53 133 -121q63 41 86.5 94.5t23.5 141.5q0 102 -55 163.5t-154 61.5q-59 0 -78.5 -34t-19.5 -105z" />
<glyph unicode="9" horiz-adv-x="1302" d="M53 928q0 143 99 258q84 98 210 153q109 45 187 68q100 29 178 29q125 0 246 -64q131 -78 199.5 -202.5t68.5 -274.5l-4 -82q-23 -213 -252 -426q-201 -186 -516 -336q-45 -20 -76 -31q-53 -18 -86 -18q-39 0 -61 29l-8 12q0 18 41 47q20 14 71 47q199 117 289 185 q145 109 225 225q92 135 117 307q6 51 11 111.5t5 87.5q0 80 -24.5 140t-85.5 93q-43 20 -108.5 34.5t-121.5 14.5q-70 0 -131 -17.5t-112.5 -53t-89 -102t-37.5 -130.5q0 -47 24.5 -94t69.5 -86t96 -39q14 0 25 2q14 2 49 14q12 4 92 54q33 20 51 20l37 -8q66 -43 66 -119 q0 -41 -29 -69q-68 -72 -135.5 -98.5t-163.5 -26.5l-41 4q-139 0 -245.5 81t-125.5 212z" />
<glyph unicode=":" horiz-adv-x="487" d="M86 137q0 72 53 119q39 33 92 33q68 0 115 -49q16 -18 24.5 -44t8.5 -55q0 -68 -51 -110q-37 -31 -97 -31q-31 0 -58.5 11.5t-48 35t-29.5 44t-9 46.5zM86 874q0 72 53 119q41 35 92 35q68 0 115 -51q16 -18 24.5 -43.5t8.5 -54.5q0 -68 -48 -108t-100 -40q-61 0 -108 53 q-18 23 -27.5 43.5t-9.5 46.5z" />
<glyph unicode=";" horiz-adv-x="509" d="M94 887q0 72 53 119q39 35 95 34q66 0 112 -51q16 -18 24.5 -43.5t8.5 -54.5q0 -68 -48 -108t-97 -40q-63 0 -111 54q-18 23 -27.5 43t-9.5 47zM111 170q0 68 53 115q43 37 90 37q31 0 67.5 -15.5t57 -36t29 -47t8.5 -57.5q0 -18 -4 -46t-9.5 -60.5t-15.5 -55t-39 -52.5 t-103.5 -70t-101.5 -40l-8 4l12 17q31 29 62 57q14 18 20.5 45t12.5 49q-25 0 -48.5 14.5t-46.5 39.5q-37 51 -36 102z" />
<glyph unicode="&#x3c;" horiz-adv-x="1251" d="M152 602v98l901 402v-146l-719 -305l719 -307v-145z" />
<glyph unicode="=" horiz-adv-x="1529" d="M166 829v164h1184v-164h-1184zM170 471v172l8 4h1172v-176h-1180z" />
<glyph unicode="&#x3e;" horiz-adv-x="1251" d="M199 199v145l716 307l-716 305v146l901 -402v-98z" />
<glyph unicode="?" horiz-adv-x="903" d="M72 1155q0 152 102 232.5t256 80.5q139 0 235.5 -87t96.5 -226q0 -150 -133 -307q-172 -205 -207 -295q-14 -49 -21.5 -98t-7.5 -111h-28q-6 39 -9 57q-8 55 -8 95q0 145 150 438q72 141 71 266q0 94 -37 152q-43 68 -126 67q-92 0 -133.5 -58t-41.5 -153q0 -51 13 -106 l-156 -41q-8 16 -12 44t-4 50zM276 104q0 53 35 88t86 35q47 0 83 -36t36 -87q0 -53 -35 -85.5t-84 -32.5q-51 0 -86 32.5t-35 85.5z" />
<glyph unicode="@" horiz-adv-x="1853" d="M63 719q0 319 275 543q258 211 590 211q334 0 588 -199q274 -213 274 -539q0 -324 -272 -536q-254 -199 -590 -199h-8q-305 0 -543 158q-260 172 -305 456zM190 723l9 -88q37 -240 260 -391q207 -139 461 -140l8 5q285 0 502 170q231 182 231 456q0 276 -234 459 q-217 170 -499 170q-276 0 -500 -180q-238 -193 -238 -461zM461 426q6 23 8 25q96 135 193 272q113 166 180 317q2 8 11 22.5t9 22.5t-22.5 20.5t-22.5 20.5l4 9q12 25 21 24h8l106 -16q12 -6 21 -17l16 -24q47 -53 135 -199q18 -29 156 -264q84 -141 117 -188 q12 -12 12 -37q0 -20 -12 -21l-74 -8q-8 0 -22.5 4t-26.5 8q-10 4 -22.5 20.5t-14.5 16.5q-16 23 -78 154q-25 53 -33 59l-8 -4q-113 -6 -220 -11t-150 -5l-33 4h-17q-14 0 -36 -33q-43 -74 -111 -164q-14 -18 -29 -37l-32 -8q-18 0 -25 21zM719 688q0 -8 33 -8 q53 0 157.5 10t151.5 10q16 0 16 27l-4 21q-20 45 -59 112q-49 86 -53 92q-6 14 -23 25q-4 2 -14 8q-18 0 -37 -37q-25 -45 -90 -137q-47 -68 -70 -100z" />
<glyph unicode="A" horiz-adv-x="2015" d="M86 68q0 20 16 53q45 66 242 344q158 221 246 364q131 211 221 416q4 12 22.5 39t18.5 43q0 23 -41 47.5t-41 40.5l4 8q2 14 16.5 32t28.5 18h8q102 -16 207 -33q20 -4 38 -29t36 -47q84 -96 256 -379q4 -8 299 -506q166 -279 227 -358q17 -25 17 -66q0 -45 -29 -45 q-25 -4 -61.5 -7t-53.5 -3q-57 0 -118 18q-20 4 -38 30t-28 40q-37 47 -92 164q-111 233 -121 240q-25 8 -49 8l-45 -4q-98 0 -375 -25q-139 -12 -229 -12l-86 4h-33q-14 0 -29.5 -7t-40.5 -50q-41 -72 -129 -201q-61 -90 -84 -121q-2 -2 -22 -35q-12 -20 -31 -31 q-31 -8 -61 -16q-33 0 -54 33q-12 25 -12 33zM578 578q0 -20 65 -21l25 -4q96 0 290.5 22.5t276.5 22.5q12 0 20.5 18.5t8.5 38.5t-9 37q-35 76 -110 211q-29 51 -98 178q-20 37 -39 53.5t-37 16.5q-33 0 -70 -74q-45 -90 -133 -215t-174 -248z" />
<glyph unicode="B" horiz-adv-x="1228" d="M137 1407q0 25 18.5 43t43.5 18q96 0 225 -6t194 -6q119 0 219.5 -84t100.5 -184v-12q0 -53 -25 -115q-35 -72 -49 -105l-8 -24q0 -14 12.5 -30.5t28.5 -27.5q92 -55 155.5 -161.5t63.5 -229.5v-20q0 -139 -68.5 -237.5t-199.5 -162.5q-80 -39 -175 -54t-202 -15l-231 6 h-13l-41 -2q-18 0 -24 8q-12 12 -12 25l4 41q0 188 -4.5 430.5t-8.5 483.5t-4 421zM389 186q0 -18 8 -36q4 -6 19.5 -30t40 -36t51.5 -12q39 0 86 16q25 8 86 37q98 45 151.5 128t53.5 185v25q0 172 -107 287q-90 96 -180 96q-14 0 -31.5 9t-17.5 19l8 17q57 57 84 96 q55 80 55 152v8q0 123 -78 188q-63 53 -151 54l-41 -5q-33 -10 -32 -32v-672q0 -78 -2.5 -242t-2.5 -252z" />
<glyph unicode="C" horiz-adv-x="1505" d="M90 723q0 254 225.5 474t505.5 255q33 2 56.5 3t37.5 1h29q53 0 123 -6q164 -14 207 -14q59 0 80.5 -13.5t21.5 -38.5l-4 -32l-4 -21q0 -12 8 -45t8 -53q0 -25 -4 -37l-8 -8q-8 0 -33 16q-80 51 -82 53q-98 51 -139 68q-113 47 -227 47h-49q-270 -25 -396.5 -184.5 t-126.5 -460.5l5 -12q0 -244 225 -406q210 -151 487 -151h4q70 0 131.5 9t122.5 28l54 8q45 0 45 -33q0 -18 -15.5 -41t-29.5 -25q-258 -90 -469 -90q-340 0 -562.5 196t-222.5 505z" />
<glyph unicode="D" horiz-adv-x="1388" d="M111 1407q0 25 26.5 43t55.5 18l135 -4q23 0 74 4.5t79 4.5h49q307 0 508 -148q240 -176 240 -512q0 -272 -129 -469t-377 -301q-49 -23 -106.5 -34t-159.5 -11h-98l-146 -8h-29q-86 0 -86 45q0 16 7 39q18 66 18 71l4 779l-4 419q0 16 -28.5 28.5t-28.5 29.5zM412 651 q0 -92 4 -298t4 -208q0 -86 94 -86q43 0 104 19q23 6 76 26q156 57 236 250q67 164 67 377v74q0 233 -110 397q-131 195 -369 195h-24q-43 0 -60.5 -59.5t-17.5 -129.5z" />
<glyph unicode="E" horiz-adv-x="972" d="M76 84v1038l4 285q4 35 14 45q23 25 88 25h152q154 0 284 -5.5t189 -15.5q16 0 28.5 -30.5t12.5 -53.5q0 -25 -12 -24q-84 14 -237 33.5t-189 19.5h-13q-53 -6 -53 -45q-6 -33 -10 -159t-4 -191q0 -53 6 -68.5t37 -17.5l57 -5q72 0 132.5 5.5t105.5 15.5l45 4 q18 0 24 -20v-37l-4 -74q0 -6 -6 -12q-4 -2 -6 -4q-12 8 -27.5 14t-29.5 6q-39 0 -113 8t-100 8q-45 0 -64.5 -4t-38 -7t-18.5 -30q0 -45 -4 -179t-4 -150l4 -273q0 -86 67 -86l33 4q109 14 209 43q51 14 164 56h16q14 0 25 -6q12 -7 12 -15l-8 -16q-53 -63 -107 -127 q-27 -25 -90 -25q-78 -8 -177 -12t-177 -4l-172 4q-29 0 -37 15.5t-8 66.5z" />
<glyph unicode="F" horiz-adv-x="972" d="M78 84v1038l4 285q4 35 14 45q23 25 88 25h152q154 0 284 -5.5t189 -15.5q16 0 28.5 -30.5t12.5 -53.5q0 -25 -12 -24q-84 14 -236.5 33.5t-189.5 19.5h-13q-53 -6 -53 -45q-6 -33 -10 -159t-4 -191q0 -53 6 -68.5t37 -17.5l57 -5q72 0 132.5 5.5t105.5 15.5l45 4 q18 0 24 -20v-37l-4 -74q0 -6 -6 -12q-4 -2 -6 -4q-12 8 -27.5 14t-29.5 6q-39 0 -113 8t-100 8q-45 0 -64.5 -4t-38 -7t-18.5 -30q0 -45 -4 -188t-4 -166l4 -317v-27q0 -82 -41 -88l-70 -2l-94 2q-29 0 -37 15.5t-8 66.5z" />
<glyph unicode="G" horiz-adv-x="1644" d="M117 711l4 32q0 260 246 480q207 184 432 229q117 20 243 21q76 0 150 -6.5t154 -22.5q20 -4 44.5 -26.5t24.5 -45.5v-8q-4 -12 -20 -29l-37 -8q-8 0 -25 8q-55 39 -129 57.5t-153 18.5q-115 0 -220 -31q-215 -68 -325 -245q-100 -162 -100 -387l4 -13q0 -229 215 -436 t467 -207l61 4q41 4 84 18.5t43 30.5v74q0 84 -31 334q-14 117 -14 207q0 16 20.5 30.5t39 24.5t51.5 10q31 0 57.5 -9t52.5 -32q49 -43 49 -100v-8v-78q0 -172 -3 -230.5t-21 -230.5q-6 -49 -34 -74.5t-75 -42t-84 -21.5t-90 -5h-106q-401 0 -678 186q-297 201 -297 531z " />
<glyph unicode="H" horiz-adv-x="1667" d="M104 1294l5 121q0 29 3 45.5t19 16.5q41 0 87 2t52 2q18 0 38 -16.5t20 -32.5q14 -86 18 -220q12 -340 16 -383l908 33q0 27 -4 97.5t-4 84.5q0 92 3 212t5 196q0 8 12 18.5t25 10.5h8q35 -4 63.5 -4h59.5q29 -6 41 -31t12 -53q0 -197 6 -412t13.5 -472t7.5 -409v-16 q0 -25 -11.5 -45.5t-31.5 -20.5l-70 -8q-14 0 -32.5 3t-34 5t-23.5 22.5t-12 59.5q0 154 -9 271q-25 350 -24 405l-908 -16v-293q0 -63 3 -100q10 -180 10 -205q0 -66 -8 -94q-14 -49 -56 -50q-16 0 -51 -6t-51 -6q-10 0 -25.5 4t-27.5 8q-37 12 -37 62l4 20l4 260 q0 147 -11.5 485.5t-11.5 448.5z" />
<glyph unicode="I" horiz-adv-x="464" d="M100 1249l4 178q0 37 46 37l73 -4h45q33 0 33 -16q0 -55 4 -302t8 -526.5t4 -490.5v-41q0 -39 -5 -61.5t-19 -22.5l-98 -10l-41 4q-25 2 -37.5 28.5t-12.5 61.5v375z" />
<glyph unicode="J" horiz-adv-x="1019" d="M80 244q0 18 4 43.5t8 50.5q33 127 160 186q55 25 113 25q25 0 57.5 -7t44.5 -18.5t12 -23.5q0 -23 -41 -37q-47 -12 -83 -56.5t-46 -101.5l-4 -45q0 -47 29 -98q47 -70 137 -70q18 0 47 8.5t43 12.5q74 27 98 114q16 57 17 179v1026q0 43 41 49l82 8h53q25 -2 33 -20.5 t8 -53.5v-1009q0 -143 -74 -236q-63 -80 -184 -123q-123 -49 -229 -49q-61 0 -118 16.5t-118 57.5q-47 27 -68.5 71.5t-21.5 100.5z" />
<glyph unicode="K" horiz-adv-x="1054" d="M96 0l4 27l-4 274q0 254 3 525.5t5 435.5v194q0 8 36 12.5t83 4.5q63 0 94 -3.5t31 -13.5q2 -25 3 -61.5t1 -71.5l-4 -176v-8q0 -10 6 -21q0 -2 6 -4q8 2 11 4q12 6 14 12q43 53 205 195q43 39 176 152l119 -4q8 0 16 -12.5t8 -24.5q-66 -63 -198 -170 q-236 -190 -236 -201q2 -10 65.5 -49t90.5 -84q37 -72 59 -172q20 -117 31 -166q33 -262 45 -363q23 -172 94 -172l70 41q14 0 27.5 -13.5t13.5 -27.5l-4 -16q-18 -31 -50 -46t-94 -15q-106 0 -172 129q-49 100 -82 297q-23 164 -45 327q-12 106 -51 174t-84 68 q-51 0 -51 -201q6 -215 10 -382t4 -359q0 -20 -16.5 -28.5t-36.5 -11.5t-45 -4t-35 -1l-86 4h-29z" />
<glyph unicode="L" horiz-adv-x="1361" d="M119 47q0 4 6 22.5t6 30.5l-4 1303q0 29 18.5 52.5t42.5 25.5q29 0 68 4t68 4q25 -2 31.5 -24.5t6.5 -61.5l9 -1229l-4 -45q0 -29 20 -29q61 -6 135 -13t107 -7q139 0 282 65q125 47 236 152q66 59 98 59q25 1 25 -30q0 -29 -21 -90q-27 -70 -68.5 -101t-82.5 -59 q-27 -25 -92 -51q-20 -8 -62 -23l-756 -2q-43 0 -61 35z" />
<glyph unicode="M" horiz-adv-x="1785" d="M113 88l4 1231l-4 24q0 43 7 72t31.5 43.5t49.5 14.5q31 0 65 -41q109 -137 205 -273q76 -113 152.5 -222.5t136.5 -176.5q12 -14 24 -29q23 -25 37 -24l25 12q162 190 280 342q82 104 254 332q33 41 78 56t107 15q35 0 47 -32.5t12 -79.5l25 -1272q0 -49 -33 -64.5 t-72 -15.5t-69 18q-23 8 -32 33t-9 58l-4 354q0 123 8 364.5t8 343.5q-2 4 -8 13l-4 4q-25 0 -50 -25q-143 -162 -299 -362q-139 -178 -284 -383q-6 -12 -25 -12q-16 0 -43.5 18t-38.5 31q-78 90 -211 266t-225 285h-12q-29 0 -29 -29q0 -45 -4 -155.5t-4 -121.5l4 -469 v-114q0 -55 -6 -76q-12 -41 -49 -41q-25 0 -35 25.5t-10 62.5z" />
<glyph unicode="N" horiz-adv-x="1298" d="M119 1053l4 391q0 33 41 33h33q49 0 83.5 -7.5t47.5 -25.5q78 -109 281.5 -401.5t248.5 -356.5q113 -158 170 -231l4 -4q8 0 20.5 12t12.5 33l-4 387l4 536q0 10 9 26.5t20 18.5h16q37 0 53.5 -7t16.5 -38v-223q0 -170 -2 -383t-3 -406.5t-4 -388.5q0 -32 -30 -32h-2 q-10 2 -21 10q-8 6 -16 14q-150 193 -354 477q-135 186 -306 431q-143 203 -155 217l-21 4q-16 0 -16 -21l-4 -231l4 -688v-136q0 -63 -25 -63h-28l-54 2q-16 4 -18 6q-2 4 -2 47v617z" />
<glyph unicode="O" horiz-adv-x="1785" d="M92 735q0 311 231.5 528.5t587.5 217.5q358 0 564 -209q194 -198 194 -520q-20 -98 -41 -195q-74 -223 -223 -362q-211 -197 -547 -197h-12q-340 0 -551 213q-203 205 -203 524zM299 784q0 -338 221 -534q172 -154 354 -154l7 4q238 0 407.5 196t169.5 456 q0 274 -143 446q-152 182 -416 182h-8q-291 0 -457 -209q-135 -170 -135 -387z" />
<glyph unicode="P" horiz-adv-x="1114" d="M106 1448q0 20 15.5 25.5t46.5 5.5q20 0 29 2h219q129 0 205 -17q172 -47 270 -129q115 -96 115 -233v-12q0 -78 -111 -181q-76 -70 -184 -133q-37 -23 -76 -32t-80 -9l-61 4q-41 0 -41 17q0 23 55 31t63 10q35 8 70 28q61 39 84 98.5t23 141.5v41q0 109 -45.5 190.5 t-139.5 114.5q-49 14 -98 29q-16 0 -36.5 -14.5t-35 -28t-14.5 -29.5l-5 -229q0 -156 3.5 -344.5t5.5 -307.5l-9 -374q-4 -35 -5 -68q-8 -39 -33 -39l-94 -4l-78 8q-25 0 -25 45l8 82q0 225 3.5 468t5.5 396l-4 400q0 10 -23 22.5t-23 24.5z" />
<glyph unicode="Q" horiz-adv-x="1783" d="M88 735q0 313 232.5 529.5t590.5 216.5q356 0 562 -209q195 -199 194 -520q-8 -47 -14 -95q-25 -115 -76 -219q-70 -145 -180 -248l65 -65q72 -86 150 -173t176 -134q55 -27 93 -34t114 -7q25 0 56.5 7t66.5 13l16 -8q-2 -8 -2 -12q-4 -10 -14 -25q-68 -90 -111 -90 q-27 -6 -60.5 -12t-66.5 -6q-35 0 -61.5 6t-63.5 24q-109 47 -201 168q-121 160 -178 205l-78 70q-84 -55 -195.5 -87t-248.5 -32q-346 0 -556 208t-210 529zM297 784q0 -342 223 -534q172 -150 359 -150q184 0 309 107q-10 6 -19 12q-12 8 -22 8q-23 10 -50.5 13.5 t-68.5 3.5h-100q-37 0 -70 16q-55 33 -63 45q-6 23 -15 43l-4 12q0 14 18.5 21.5t51.5 7.5q29 0 76 -6q113 -14 135 -14q129 -18 221 -80q176 193 176 463q0 272 -143 446q-150 182 -412 182q-301 0 -467 -206q-135 -168 -135 -390z" />
<glyph unicode="R" horiz-adv-x="1159" d="M102 51q0 238 4.5 759t4.5 613q0 49 61 50q27 0 90.5 2t73.5 2h35q201 0 303 -80t102 -226v-16q0 -174 -147 -264q-23 -14 -29 -19q-12 -10 -12 -18q4 -4 8 -6q18 -12 29 -19q117 -55 145 -251q10 -166 25.5 -330t115.5 -164q20 0 39 10t51 35q12 12 31 12q25 1 25 -24 q0 -16 -13 -41q-25 -39 -68.5 -60.5t-109.5 -21.5q-180 0 -239 287q-18 170 -35 342q-14 68 -43 110q-45 68 -125 84q-33 0 -33 21l12 16q82 31 138 96q71 85 71 202q0 101 -61.5 166.5t-147.5 65.5h-63q-37 0 -37 -28q0 -123 1 -317.5t3 -459t4 -524.5q0 -20 -11 -37.5 t-30 -17.5l-90 -2l-53 2q-12 0 -18 10t-7 41z" />
<glyph unicode="S" horiz-adv-x="1112" d="M57 203q0 8 5.5 23.5t7.5 21.5q23 57 77 74h25q12 0 22.5 -10.5t10.5 -35.5v-49q0 -111 61 -145q39 -23 142 -23l12 -4q102 0 178 82t76 197q0 119 -133 315q-96 143 -125 201q-45 106 -54 127q-26 69 -26 121q0 29 6 53.5t20 65.5q47 125 148 182q70 39 225 65 q27 2 50.5 5.5t52.5 3.5l82 -9q33 -6 53 -10t33 -22q4 -9 4 -29q-12 -39 -15.5 -62.5t-21 -35t-33.5 -11.5q-23 0 -53 21q-39 31 -76 61q-35 25 -72 25h-32q-80 -14 -122 -65.5t-42 -118.5l4 -9q10 -100 30.5 -157.5t79.5 -147.5q74 -115 150 -227q84 -145 84 -258 q0 -68 -25 -129q-53 -133 -157.5 -208t-247.5 -91l-129 -4q-82 0 -131 18q-63 25 -99 84q-16 29 -30.5 59.5t-14.5 55.5z" />
<glyph unicode="T" horiz-adv-x="1505" d="M86 1135l4 12q23 111 35 145q4 14 59 131q14 27 59.5 40.5t102.5 13.5l911 4q59 0 81 -10.5t35 -41t18.5 -52t5.5 -42.5l-4 -78l4 -24q0 -10 -17.5 -23.5t-31.5 -13.5q-18 0 -33 21q-66 113 -115 145q-74 49 -239 49q-53 0 -64 -12q-8 -8 -14 -60q0 -29 -4.5 -119 t-4.5 -114q0 -147 5.5 -351t12.5 -434.5t7 -273.5q0 -25 -16.5 -35t-44.5 -14h-45l-9 -4l9 4l-50 12q-43 6 -49 62q0 47 -8 225t-8 293l4 581v197q0 29 -33 29l-53 -8q-209 -18 -287 -89q-27 -23 -112 -174q-22 -36 -60 -36h-2q-18 0 -33.5 13t-15.5 32z" />
<glyph unicode="U" horiz-adv-x="1390" d="M104 850q0 82 8.5 266t8.5 287l-4 20q0 31 20 37q37 12 82 13l115 -5q20 0 31.5 -22.5t11.5 -48.5q0 -174 -6 -339t-13.5 -351.5t-7.5 -284.5q0 -131 101.5 -234.5t240.5 -103.5l13 -4q135 0 227 82t142 253t70.5 364.5t20.5 441.5v194q0 43 25 53h33q33 0 45 -8 q20 -26 20 -63l-4 -127v-189q0 -283 -26.5 -427t-83.5 -285q-80 -188 -199 -281.5t-295 -93.5h-21q-197 0 -347 106.5t-175 284.5q-16 139 -24.5 243.5t-8.5 221.5z" />
<glyph unicode="V" horiz-adv-x="1552" d="M113 1419q0 20 9 39t23 19q43 0 87 -3.5t96 -5.5q31 -2 44 -35.5t19 -52.5q121 -309 141 -362q86 -219 144 -363q43 -109 162 -399q96 164 223 377q111 184 219 375q137 240 219 395q14 35 21.5 50t23.5 15h19q36 0 36 -45q0 -18 -12 -43q-143 -262 -264 -471 q-68 -117 -241 -404.5t-261 -436.5q-27 -53 -30 -60q-20 -31 -48 -31q-35 0 -47 37t-22 74q-115 270 -203 469q-158 356 -184 420q-96 225 -170 420z" />
<glyph unicode="W" horiz-adv-x="2093" d="M96 1464q14 4 31 11q39 6 72 6q63 0 97 -3t38 -14q59 -119 178 -387q127 -291 186 -411q102 -213 168 -297q8 8 41 56t58 87q-176 393 -267 621q-98 246 -98 319q0 12 37 22.5t78 10.5q43 0 74.5 -5t35.5 -12q23 -27 68 -151.5t90 -249.5q59 -156 127 -274q37 55 113 196 q100 188 137 256q84 154 135 228q4 4 41 4l98 -4q-49 -119 -125 -259q-45 -80 -88 -157q-59 -111 -108 -205q-66 -125 -129 -250q27 -49 59 -129q10 -23 51 -51q51 100 104.5 204.5t223.5 430.5q150 289 221 420q0 4 19.5 6t38.5 2q35 0 62.5 -5.5t27.5 -15.5 q-94 -203 -228 -452q-86 -162 -141 -269q-45 -90 -149 -323q-92 -207 -140 -299q-68 -131 -96 -135q-25 0 -92.5 151.5t-87.5 151.5q-16 -2 -49 -74q-102 -217 -105 -221q-6 -12 -24 -12t-41 18t-37 43q-121 188 -266 475q-127 250 -246 510q-8 18 -193 436z" />
<glyph unicode="X" horiz-adv-x="1181" d="M94 2q6 6 107 172q94 158 190 315q109 178 119 195q-150 322 -229.5 513.5t-79.5 254.5q0 14 23.5 21.5t62.5 7.5q31 0 67.5 -4t40.5 -13q16 -29 92 -223t138 -326q27 39 92 160q55 104 115.5 215t111.5 183q8 8 45 8l72 -4q-39 -92 -85 -177.5t-95.5 -173.5t-87.5 -165 q-63 -125 -103 -209q117 -248 204 -429.5t171 -328.5q0 -8 -36 -12.5t-68 -4.5q-37 8 -62 9l-25 -4q-18 0 -90 149q-63 139 -127 279q-70 151 -82 151q-23 -1 -157 -231q-134 -228 -176 -324q-6 -12 -37 -12h-66z" />
<glyph unicode="Y" horiz-adv-x="1320" d="M41 1448l4 4q23 4 51.5 8t59.5 4q33 0 49 -8q27 -18 109.5 -135t168.5 -242q123 -180 158 -225q49 74 100 147q139 207 193 283q111 158 127 173.5t57 15.5q25 0 62 -9q12 -2 32 -8q-25 -53 -137 -213q-141 -199 -192 -276q-100 -154 -107 -203q6 -176 8 -279 q10 -291 25 -450l-4 -21q0 -6 -2 -10q-2 -2 -6 2q-12 -2 -44 -7t-59 -5q-20 0 -49 4t-45 8q-8 2 -12 10q-4 6 -8 47q-16 119 -22.5 377t-10.5 287q0 10 -131 186q-152 203 -242 330q-133 184 -133 205z" />
<glyph unicode="Z" horiz-adv-x="1298" d="M87 63.5q7 16.5 9 20.5q139 211 359 518q168 233 338 469q154 215 170 244q4 8 4 12q4 14 4 25q-4 16 -8 16h-633q-23 0 -65 17.5t-42 37.5l4 4l-4 17q0 12 37 12l154 -4l196 4l320 4h219q25 0 25 -59v-31q0 -96 -6.5 -140t-18.5 -59q-104 -143 -301 -413 q-168 -233 -270 -377q-127 -180 -172 -248l-5 -16q0 -37 37 -37h625q6 0 17.5 -13.5t11.5 -27.5v-12q0 -10 -7 -25l-6 -12h-975q-24 0 -24 38q0 19 7 35.5z" />
<glyph unicode="[" horiz-adv-x="743" d="M211 -350v1706h461v-62h-129q-84 0 -112 -18.5t-28 -75.5v-1323q0 -113 18.5 -139.5t98.5 -26.5h150v-61h-459z" />
<glyph unicode="\" horiz-adv-x="1044" d="M76 1456h82l784 -1474h-94z" />
<glyph unicode="]" horiz-adv-x="743" d="M72 -287h129q84 0 111.5 17.5t27.5 74.5v1323q0 113 -18.5 139.5t-98.5 26.5h-149v62h458v-1706h-460v63z" />
<glyph unicode="^" horiz-adv-x="1069" d="M219 944l252 412h129l250 -412h-141l-174 252l-173 -252h-143z" />
<glyph unicode="_" horiz-adv-x="913" d="M-23 -162h963v-143h-963v143z" />
<glyph unicode="`" horiz-adv-x="788" d="M236 1386h217l100 -337z" />
<glyph unicode="a" horiz-adv-x="1320" d="M55 43l8 33l242 340q139 205 223 393q2 6 13.5 23.5t11.5 29.5t-26.5 28.5t-26.5 24.5l4 9q10 32 27 32h1h9q66 -10 131 -20q14 -4 25.5 -22.5t19.5 -30.5q53 -59 168 -244q51 -84 196 -330q106 -182 146 -233q16 -16 16 -41q0 -29 -20 -29l-86 -6q-35 0 -57.5 7 t-32.5 22q-18 25 -21 26q-20 25 -98 191q-31 66 -43 71h-17q-147 -10 -272 -17t-186 -7l-33 4h-25q-16 0 -43 -37q-43 -72 -63 -102q-31 -45 -76 -103q-8 -18 -12 -24q-6 -12 -21 -21l-41 -8q-18 0 -29.5 14.5t-11.5 26.5zM373 377q0 -12 45 -12l28 -5q61 0 182.5 14.5 t174.5 14.5q16 0 16 37l-4 25q-23 47 -56.5 107t-78.5 144q-27 45 -49 46q-8 0 -15 -7q-12 -10 -30 -41q-35 -66 -113 -174q-59 -84 -88 -125z" />
<glyph unicode="b" horiz-adv-x="811" d="M100 915q0 10 9.5 25.5t27.5 15.5l277 -8q74 0 139 -57t65 -119q0 -39 -19 -83t-30 -66l-4 -13q0 -25 25 -41q59 -31 101 -105.5t42 -158.5v-8q0 -88 -44 -149.5t-128 -104.5q-55 -27 -111.5 -36t-136.5 -9l-147 2h-37l-16 2l-9 16l5 29q0 160 -4.5 505t-4.5 363z M260 121q0 -18 21 -45q16 -29 57 -29q18 0 41 6q51 20 72 27q61 27 96 81t35 120v20q0 111 -66 184q-53 59 -115 68q-37 0 -36 16l8 13q39 39 55 63q35 51 35 98q0 78 -53 121q-43 35 -101 35h-24q-20 -10 -21 -25v-378q0 -57 -2 -182.5t-2 -192.5z" />
<glyph unicode="c" horiz-adv-x="972" d="M61 471q0 166 146.5 308.5t331.5 164.5l82 4q37 0 106.5 -8t106.5 -8q33 0 47 -11.5t14 -25.5v-16l-4 -17q0 -10 6 -32.5t6 -32.5v-21l-8 -4q-8 0 -23 10q-49 35 -51 35q-76 37 -119 51q-63 23 -118 23h-29q-174 -14 -258 -118.5t-84 -293.5l4 -12q0 -160 145 -266 q137 -100 320 -101q43 0 73.5 5.5t90.5 19.5l37 4q28 0 28 -20q0 -12 -8 -24.5t-20 -16.5q-166 -57 -303 -58q-225 0 -369.5 128t-144.5 329z" />
<glyph unicode="d" horiz-adv-x="905" d="M61 911q0 16 18.5 30.5t35.5 14.5l123 -4l65 4h37q201 0 330 -96q151 -113 151 -332q0 -362 -327 -501q-27 -12 -67 -19.5t-103 -7.5h-66l-98 -6h-21q-53 0 -53 29q0 10 8 34.5t8 34.5v778q0 10 -18 18.5t-18 18.5zM254 426q0 -61 4 -196.5t4 -137.5q0 -53 62 -53 q51 0 118 29q102 35 156 163q43 107 43 252v41q0 154 -72 258q-86 125 -245 125h-13q-27 -2 -40 -43t-13 -80z" />
<glyph unicode="e" horiz-adv-x="626" d="M49 35l4 20l-4 152v577l4 131q6 29 15 33q18 12 51 13q109 0 228.5 -1.5t178.5 -11.5q10 0 17.5 -19.5t7.5 -37.5q0 -4 -2 -10q0 -2 -2 -7q-84 12 -165 22.5t-112 10.5h-12q-33 0 -33 -28q-4 -29 -6 -94.5t-2 -129.5q0 -18 1 -35.5t24 -21.5q47 0 102 1t92 11l29 4 q16 0 16 -16v-25l-4 -45q0 -4 -4 -8l-4 -4q-6 4 -10 6q-12 6 -27 6q-25 0 -76 6.5t-69 6.5h-33q-31 -6 -33 -9q-4 -2 -4 -20q0 -37 -4 -140.5t-4 -111.5l4 -139q0 -57 45 -58l21 5q61 8 124.5 26.5t118.5 34.5h13q6 0 14 -6q2 -4 6 -6l-4 -8l-70 -82q-18 -16 -57 -17 q-59 -6 -138 -8t-85 -2l-119 2q-33 0 -33 33z" />
<glyph unicode="f" horiz-adv-x="450" d="M51 35l4 20l-4 152v577l4 131q6 29 15 33q18 12 51 13q109 0 228.5 -1.5t178.5 -11.5q10 0 17.5 -19.5t7.5 -37.5q0 -4 -2 -10q0 -2 -2 -7q-84 12 -165 22.5t-112 10.5h-12q-33 0 -33 -28q-4 -29 -6 -94.5t-2 -129.5q0 -18 1 -35.5t24 -21.5q47 0 102 1t92 11l29 4 q16 0 16 -16v-25l-4 -45q0 -4 -4 -8l-4 -4q-6 4 -10 6q-12 6 -27 6q-25 0 -76 6.5t-69 6.5h-33q-31 -6 -33 -9q-4 -2 -4 -20q0 -37 -4 -147.5t-4 -124.5l4 -164q0 -70 -25 -74l-45 -2l-61 2q-33 0 -33 33z" />
<glyph unicode="g" horiz-adv-x="1091" d="M84 459l4 24q0 170 160 312q135 119 280 149q61 12 148 12q96 0 205 -20q14 0 32 -23q12 -14 13 -26l-13 -21q-6 -4 -8 -4q-10 -4 -16 -4l-17 8q-74 49 -184 49q-63 0 -139 -20q-139 -41 -210 -150.5t-71 -252.5l4 -13q0 -152 140.5 -286t300.5 -134l41 4q29 0 57.5 9.5 t28.5 19.5v41q0 70 -19 225q-10 86 -10 138l-4 4q0 8 12 16t25 12l41 9q41 0 65 -25q33 -27 33 -66v-8v-64.5v-31.5v-31v-26q0 -84 -16 -197q-2 -31 -19.5 -47t-50.5 -31q-29 -8 -53.5 -10t-57.5 -2h-69q-260 0 -438 119q-195 129 -195 342z" />
<glyph unicode="h" horiz-adv-x="1114" d="M74 801l4 119q0 41 12 41h35q14 0 31.5 2t27.5 2t21.5 -11.5t11.5 -21.5q10 -63 14.5 -193.5t10.5 -197.5l587 20l-4 115l4 268q0 20 29 21q23 -4 42.5 -4h39.5q16 -2 24.5 -19.5t8.5 -38.5q0 -119 6 -278q14 -375 14 -492v-70q0 -20 -7 -35.5t-25 -17.5l-46 -4l-36 4 q-10 2 -17 13q-6 10 -12 40q0 92 -10.5 227.5t-10.5 213.5l-587 -8v-240l4 -152v-28q0 -31 -7.5 -48.5t-29.5 -17.5l-70 -8l-33 8q-25 8 -24 37l4 16v164q0 100 -6 289t-6 285z" />
<glyph unicode="i" horiz-adv-x="325" d="M102 51v621q0 57 3.5 129.5t5.5 118.5q0 24 22 24h2l45 -4h33q20 0 20 -8q0 -88 5 -170q12 -242 12 -275q0 -90 -2 -137q-10 -238 -10 -258l4 -61q0 -29 -21 -31l-57 -6h-29q-16 2 -24.5 19.5t-8.5 37.5z" />
<glyph unicode="j" horiz-adv-x="696" d="M59 162l9 57q25 84 106 119q14 10 33.5 14t36.5 4q33 0 47 -4t22 -12t9 -18q0 -12 -29 -21.5t-52.5 -37t-29.5 -64.5l-4 -37q0 -31 20 -58q33 -45 86 -45l60 13q47 18 63 75q10 39 10 117v668q0 25 29 33l86 4q29 -4 29 -49v-656q0 -94 -44 -150.5t-124 -82.5 q-80 -31 -150 -31q-76 0 -151 47q-61 37 -62 115z" />
<glyph unicode="k" horiz-adv-x="694" d="M63 0l5 18v152l4 668v106q0 4 27.5 8t54.5 4q20 0 38.5 -2t34.5 -6l4 -98l-4 -107q0 -6 6 -14q2 -4 7 -6l12 8q25 33 133 129q78 68 115 101l78 -5l8 -8q8 -10 8 -16q-37 -35 -131 -111q-154 -123 -154 -129q2 -6 27 -20q59 -33 74 -66q25 -43 41 -110q14 -78 20 -111 q20 -170 31.5 -258t58.5 -88l45 24q25 0 25 -28v-8q-12 -18 -34 -27.5t-60 -9.5q-117 0 -160 246q-23 170 -32 241.5t-35.5 114.5t-57.5 43q-33 0 -33 -119q0 -76 2 -131q10 -272 10 -362q0 -14 -12 -21q-8 -4 -24 -8h-107q-16 0 -20 2q-2 2 -5 4z" />
<glyph unicode="l" horiz-adv-x="888" d="M70 31q8 20 8 32l-4 848q0 49 41 50q18 2 41.5 5t52.5 3q14 -2 18 -21q2 -8 2 -37v-798l-4 -29q0 -20 17 -21q31 0 82 -6t71 -6q49 0 91 8.5t94.5 30t81 39.5t72.5 58t63 40q16 0 16 -16q0 -20 -14.5 -62.5t-42 -60.5t-54.5 -37q-18 -18 -73 -41q-8 -2 -25 -8l-489 -2 q-29 0 -41 23z" />
<glyph unicode="m" horiz-adv-x="1181" d="M80 55l4 799l-4 25q0 51 24 69l33 8q29 0 45 -28q37 -49 144 -197q127 -176 178 -235q16 -18 22 -25q12 -12 19 -12l16 12q121 147 178 219q72 90 166 213q23 27 52.5 38t68.5 11q23 0 32 -22.5t9 -50.5l12 -828q0 -31 -24 -41q-8 -6 -23.5 -8t-23.5 -2q-29 0 -45 10 q-25 10 -25 58q0 115 2 295t6 397q0 6 -6 10q-4 0 -6 2q-20 -12 -29 -16q-84 -94 -192 -236q-88 -113 -185 -248l-16 -12q-10 0 -22.5 10.5t-26.5 22.5q-145 180 -289 362h-8q-16 -12 -16 -16l-5 -197v-366q0 -35 -6 -55.5t-30 -20.5q-14 0 -21.5 16.5t-7.5 38.5z" />
<glyph unicode="n" horiz-adv-x="858" d="M96 684l4 256q0 20 25 21h25q31 0 53 -5.5t28 -15.5l453 -647l4 -4q20 0 21 33v602q0 23 20 28h12l33 -4q6 -2 10 -16q0 -2 2 -8l-4 -914q0 -20 -24 -20l-25 16q-94 121 -224 304.5t-202 285.5q-92 131 -100 139l-12 4q-12 -8 -13 -16v-684q0 -37 -16 -39h-16l-37 2 l-9 -2q-4 16 -4 35v403z" />
<glyph unicode="o" horiz-adv-x="1157" d="M66 479q0 199 151.5 342.5t382.5 143.5t367 -138q127 -128 127 -335q-14 -63 -27 -127q-47 -145 -145 -238q-137 -129 -355 -129h-12q-221 0 -355 136t-134 345zM205 512q0 -223 145 -350q113 -98 230 -99q154 0 265 128.5t111 300.5q0 174 -92 284q-100 119 -272 119h-8 q-188 0 -293 -133q-86 -111 -86 -250z" />
<glyph unicode="p" horiz-adv-x="694" d="M55 940q0 12 13 16q12 4 16 5h180q33 0 63.5 -1.5t61.5 -7.5q113 -31 176 -86q74 -63 74 -155q0 -53 -72 -119q-31 -27 -121 -88q-55 -25 -102 -25l-39 4q-10 0 -20 4q-2 0 -9 5q6 8 11 10q12 10 22 10q41 4 47 6q14 4 45 19q45 31 57.5 72.5t12.5 109.5q0 72 -28.5 124 t-90.5 72q-33 8 -63 17q-20 0 -29 -8q-29 -18 -29 -37l-4 -160l4 -397q0 -66 -2 -154t-2 -104q0 -33 -4 -49.5t-20 -16.5l-74 -4l-37 4q-16 0 -16 33l4 49l4 571v252q0 4 -14.5 12.5t-14.5 16.5z" />
<glyph unicode="q" horiz-adv-x="1161" d="M51 479q0 199 152.5 342.5t386.5 143.5q229 0 362 -138q127 -131 127 -335q-12 -80 -26 -127q-47 -145 -148 -240l41 -45q66 -78 96 -111q53 -57 115 -86q37 -16 66.5 -22t72.5 -6q18 0 49 6t33 6l8 -4q-2 -6 -2 -8q-4 -10 -10 -17q-45 -57 -69 -57l-86 -8q-43 0 -82 16 q-72 31 -131 109q-80 104 -117 133l-49 45q-111 -78 -287 -78q-227 0 -364.5 135t-137.5 346zM190 512q0 -223 146 -350q113 -98 233 -99q119 0 201 70q-14 8 -29 17q-10 4 -32.5 6t-36.5 2h-66q-10 0 -26.5 5t-22.5 7q-33 18 -41 29l-8 24l-4 8q0 20 45 21q31 0 69.5 -6 t65.5 -10q35 0 66.5 -8.5t76.5 -41.5q55 61 85 139.5t30 166.5q0 174 -92 284q-98 119 -268 119q-195 0 -303 -133q-88 -109 -89 -250z" />
<glyph unicode="r" horiz-adv-x="751" d="M86 31l4 893q0 33 41 32q23 2 60.5 3.5t46.5 1.5h20q129 0 196.5 -53.5t67.5 -147.5q0 -63 -22.5 -104.5t-71.5 -73.5q-8 -6 -18 -15q-2 -2 -11 -10q4 -4 7 -6q10 -8 18 -10q94 -45 101 -265.5t83 -220.5q14 0 29.5 7.5t32.5 21.5q2 2 16 4q6 -2 8 -2q8 -4 8 -10l-8 -29 q-12 -23 -42.5 -38t-71.5 -15q-119 0 -156 188q-16 201 -21 224q-12 57 -40.5 87.5t-67.5 38.5q-14 0 -21 7q-2 2 -4 6l9 12q55 18 92 61q45 53 45 130q0 66 -39 108.5t-98 42.5h-37q-25 0 -25 -20q0 -119 2 -463t2 -381q0 -31 -28 -35h-95q-12 2 -12 31z" />
<glyph unicode="s" horiz-adv-x="741" d="M37 133l8 29q12 23 18 31q10 12 31 18h8q29 0 29 -41v-12l4 -8q0 -70 39 -95q27 -16 88 -16l4 -4q70 0 120 54t50 130q0 74 -88 205q-57 88 -78 129q-41 94 -43 102q-10 33 -10 60q0 14 2 24q2 14 14 49q31 82 97 119q47 27 147 45l66 4l53 -4q29 -4 33 -6q16 -6 24 -18 l4 -17q-8 -29 -12 -45q0 -12 -10 -20t-23 -8q-4 0 -37 16q-35 29 -47 37q-20 16 -43 16h-24q-51 -8 -81 -40.5t-30 -73.5l4 -9q6 -66 20.5 -102.5t53.5 -91.5q47 -76 96 -150q55 -98 56 -172q0 -20 -6.5 -43.5t-10.5 -38.5q-72 -174 -264 -192h-82q-59 0 -93 10t-54 51 q-10 18 -21.5 41t-11.5 37z" />
<glyph unicode="t" horiz-adv-x="983" d="M59 731l4 12q16 84 21 97q2 6 41 84q8 16 39 26.5t63 10.5l592 4q33 0 48.5 -5.5t25.5 -27.5q20 -48 20 -66q0 -2 -2 -21.5t-2 -43.5q0 -6 -11 -15.5t-21 -9.5l-21 12q-45 74 -74 95q-48 32 -149 32h-6q-31 0 -39 -8q-6 -8 -9.5 -30.5t-6.5 -85t-3 -99.5 q0 -113 8.5 -352.5t8.5 -308.5q0 -25 -37 -33h-33q-12 6 -33.5 10t-27.5 39q0 27 -4.5 133.5t-4.5 175.5v531q0 16 -24 16h-29q-137 -14 -186 -57q-18 -16 -74 -115q-14 -29 -41 -29q-33 0 -33 29z" />
<glyph unicode="u" horiz-adv-x="927" d="M57 557q0 53 4.5 191.5t4.5 162.5q0 33 16 39t57 6h66q29 0 28 -49q0 -137 -4 -250q-12 -338 -12 -385q0 -84 66.5 -150.5t156.5 -66.5l13 -4q82 0 141 55.5t91 165t45 228t13 268.5v152q0 27 17 32l24 4q16 0 25 -8q16 -16 16 -41l-4 -69v-127q0 -145 -10 -230 q-16 -127 -64.5 -244.5t-125 -180t-189.5 -62.5h-12q-131 0 -229.5 67.5t-109.5 162.5t-17.5 181.5t-6.5 151.5z" />
<glyph unicode="v" horiz-adv-x="1114" d="M74 924q0 14 4 22q6 14 16 15l119 -5q18 -2 27 -18q8 -27 14 -43l293 -729q51 90 143 246q72 121 144 241q57 98 139 258q23 45 33 45h8q26 1 26 -32l-8 -29q-121 -221 -248 -433t-249 -419q-10 -18 -19 -37q-14 -20 -31 -20q-23 0 -31 24.5t-14 48.5q-68 152 -132 297.5 t-122.5 282.5t-107.5 268z" />
<glyph unicode="w" horiz-adv-x="1388" d="M76 952q14 4 31.5 8.5t37.5 4.5q39 0 60.5 -3.5t25.5 -9.5q14 -27 179 -389q113 -248 172 -323q4 4 27.5 38.5t33.5 51.5q-115 256 -176 407.5t-61 200.5q0 12 20 19.5t53 7.5q61 0 76.5 -16.5t69.5 -168.5q61 -174 112 -264q125 219 250 440q16 4 25 5l67 -5 q-25 -59 -49 -106q-4 -6 -92 -162l-152 -299q18 -33 28.5 -64.5t41.5 -52.5q86 168 135 265q119 229 223 424l37 4q23 0 47 -7q5 0 15 -6q-51 -106 -120 -236t-122 -233q-33 -63 -113 -239q-115 -252 -139 -254l-4 4q-14 0 -57 96t-58 96q-8 -2 -28 -47q-53 -121 -70 -141 l-16 -8q-31 0 -49 37q-80 123 -175 309q-57 113 -157 332q-72 158 -129 284z" />
<glyph unicode="x" horiz-adv-x="788" d="M57 2q4 4 127 209t140 235q-94 207 -145.5 332t-51.5 166q0 8 16.5 12.5t40.5 4.5q57 0 66 -9q2 -2 78 -194q35 -86 71 -160q27 35 100.5 172t108.5 186q20 4 29 5h45q-25 -61 -54.5 -118t-60.5 -112q-39 -66 -76.5 -144.5t-46.5 -94.5q74 -164 131 -283 q50 -102 111 -215q-16 -4 -34.5 -6t-35.5 -2q-20 4 -53 4l-4 4q-12 0 -96 185.5t-92 185.5q-12 -2 -102.5 -152t-116.5 -207q-6 -8 -25 -8h-45z" />
<glyph unicode="y" horiz-adv-x="880" d="M37 940l4 4l65 4q33 0 37 -4q20 -14 84 -104q195 -276 201 -283q82 125 125 186q127 186 145 205q8 8 37 8q25 0 39.5 -2t22.5 -6q-4 -8 -199 -297q-80 -119 -84 -155q8 -115 10 -181q10 -199 11 -292l-5 -13l-4 -8l-65 -4l-62 4q-6 2 -13 53t-11 223.5t-8 196.5 q0 4 -165 224.5t-165 240.5z" />
<glyph unicode="z" horiz-adv-x="858" d="M63 18q0 29 9 37q86 127 231 330q82 115 215 293q98 133 109 151v17q-4 16 -9 16h-90l-256 -4l-57 4q-29 0 -29 25q0 12 -16 20t-16 17l4 4l-4 8q0 12 24 12l98 -4l130 4h348q16 0 16 -37q0 -57 -3 -97t-13 -54q-131 -178 -213 -291q-154 -211 -252 -356l-4 -13 q0 -25 24 -24h404q20 0 20 -25l4 -41v-10q-4 -8 -10 -12q-4 0 -6 -2q-129 0 -382 4t-263 4q-12 0 -13 24z" />
<glyph unicode="{" horiz-adv-x="518" d="M12 557q154 41 154 184v387q0 137 92 189q72 39 221 39q-154 -31 -153 -203v-303q0 -156 -25 -208t-111 -79l-24 -6q92 -29 126 -77t34 -154v-478q-1 -153 155 -198q-170 0 -231 39q-84 53 -84 217v465q0 82 -36 126t-118 60z" />
<glyph unicode="|" horiz-adv-x="487" d="M162 -401v1757h141v-1757h-141z" />
<glyph unicode="}" horiz-adv-x="505" d="M12 -350q158 43 158 198v478q0 109 33 156.5t127 74.5l-25 6q-86 27 -110.5 79t-24.5 208v303q0 172 -156 203q156 0 222 -35q94 -49 94 -193v-387q-1 -143 151 -184q-82 -16 -116.5 -59t-34.5 -127v-465q0 -156 -82 -211q-68 -45 -236 -45z" />
<glyph unicode="~" horiz-adv-x="1204" d="M166 604q98 190 244 191q66 0 151 -43q197 -98 230 -99q51 0 85.5 33t94.5 135l69 -76q-84 -195 -245 -194q-63 0 -146 45q-180 98 -237 98q-51 0 -82 -28.5t-90 -137.5z" />
<glyph unicode="&#xa1;" d="M152 586q0 80 57 137t139 57q80 0 138.5 -56t58.5 -138t-57.5 -139.5t-139.5 -57.5t-139 57.5t-57 139.5z" />
<glyph unicode="&#xa2;" d="M152 586q0 80 57 137t139 57q80 0 138.5 -56t58.5 -138t-57.5 -139.5t-139.5 -57.5t-139 57.5t-57 139.5z" />
<glyph unicode="&#xa3;" d="M152 586q0 80 57 137t139 57q80 0 138.5 -56t58.5 -138t-57.5 -139.5t-139.5 -57.5t-139 57.5t-57 139.5z" />
<glyph unicode="&#xa4;" d="M152 586q0 80 57 137t139 57q80 0 138.5 -56t58.5 -138t-57.5 -139.5t-139.5 -57.5t-139 57.5t-57 139.5z" />
<glyph unicode="&#xa5;" d="M152 586q0 80 57 137t139 57q80 0 138.5 -56t58.5 -138t-57.5 -139.5t-139.5 -57.5t-139 57.5t-57 139.5z" />
<glyph unicode="&#xa6;" horiz-adv-x="487" d="M199 -401v811l141 69v-880h-141zM199 543v813h141v-746z" />
<glyph unicode="&#xa7;" d="M152 586q0 80 57 137t139 57q80 0 138.5 -56t58.5 -138t-57.5 -139.5t-139.5 -57.5t-139 57.5t-57 139.5z" />
<glyph unicode="&#xa8;" d="M152 586q0 80 57 137t139 57q80 0 138.5 -56t58.5 -138t-57.5 -139.5t-139.5 -57.5t-139 57.5t-57 139.5z" />
<glyph unicode="&#xa9;" d="M152 586q0 80 57 137t139 57q80 0 138.5 -56t58.5 -138t-57.5 -139.5t-139.5 -57.5t-139 57.5t-57 139.5z" />
<glyph unicode="&#xaa;" d="M152 586q0 80 57 137t139 57q80 0 138.5 -56t58.5 -138t-57.5 -139.5t-139.5 -57.5t-139 57.5t-57 139.5z" />
<glyph unicode="&#xab;" d="M152 586q0 80 57 137t139 57q80 0 138.5 -56t58.5 -138t-57.5 -139.5t-139.5 -57.5t-139 57.5t-57 139.5z" />
<glyph unicode="&#xac;" d="M152 586q0 80 57 137t139 57q80 0 138.5 -56t58.5 -138t-57.5 -139.5t-139.5 -57.5t-139 57.5t-57 139.5z" />
<glyph unicode="&#xad;" d="M152 586q0 80 57 137t139 57q80 0 138.5 -56t58.5 -138t-57.5 -139.5t-139.5 -57.5t-139 57.5t-57 139.5z" />
<glyph unicode="&#xae;" d="M152 586q0 80 57 137t139 57q80 0 138.5 -56t58.5 -138t-57.5 -139.5t-139.5 -57.5t-139 57.5t-57 139.5z" />
<glyph unicode="&#xaf;" d="M152 586q0 80 57 137t139 57q80 0 138.5 -56t58.5 -138t-57.5 -139.5t-139.5 -57.5t-139 57.5t-57 139.5z" />
<glyph unicode="&#xb0;" d="M152 586q0 80 57 137t139 57q80 0 138.5 -56t58.5 -138t-57.5 -139.5t-139.5 -57.5t-139 57.5t-57 139.5z" />
<glyph unicode="&#xb1;" d="M152 586q0 80 57 137t139 57q80 0 138.5 -56t58.5 -138t-57.5 -139.5t-139.5 -57.5t-139 57.5t-57 139.5z" />
<glyph unicode="&#xb2;" d="M152 586q0 80 57 137t139 57q80 0 138.5 -56t58.5 -138t-57.5 -139.5t-139.5 -57.5t-139 57.5t-57 139.5z" />
<glyph unicode="&#xb3;" d="M152 586q0 80 57 137t139 57q80 0 138.5 -56t58.5 -138t-57.5 -139.5t-139.5 -57.5t-139 57.5t-57 139.5z" />
<glyph unicode="&#xb4;" d="M152 586q0 80 57 137t139 57q80 0 138.5 -56t58.5 -138t-57.5 -139.5t-139.5 -57.5t-139 57.5t-57 139.5z" />
<glyph unicode="&#xb5;" d="M152 586q0 80 57 137t139 57q80 0 138.5 -56t58.5 -138t-57.5 -139.5t-139.5 -57.5t-139 57.5t-57 139.5z" />
<glyph unicode="&#xb6;" horiz-adv-x="1017" d="M57 997q0 125 51.5 211t143.5 119q61 20 100 24.5t170 4.5h441v-62h-17q-68 0 -85 -23.5t-17 -111.5v-1100q0 -90 22.5 -110.5t96.5 -20.5v-61h-576v61q78 0 98.5 24.5t20.5 106.5v582l-64 -2q-182 0 -283.5 93t-101.5 265zM608 -72h129v1366h-129v-1366z" />
<glyph unicode="&#xb7;" horiz-adv-x="559" d="M166 479q0 49 32.5 82t80.5 33q49 0 82.5 -34t33.5 -81q0 -49 -33.5 -83t-82.5 -34q-47 0 -80 33t-33 84z" />
<glyph unicode="&#xb8;" d="M152 586q0 80 57 137t139 57q80 0 138.5 -56t58.5 -138t-57.5 -139.5t-139.5 -57.5t-139 57.5t-57 139.5z" />
<glyph unicode="&#xb9;" d="M152 586q0 80 57 137t139 57q80 0 138.5 -56t58.5 -138t-57.5 -139.5t-139.5 -57.5t-139 57.5t-57 139.5z" />
<glyph unicode="&#xba;" d="M152 586q0 80 57 137t139 57q80 0 138.5 -56t58.5 -138t-57.5 -139.5t-139.5 -57.5t-139 57.5t-57 139.5z" />
<glyph unicode="&#xbb;" d="M152 586q0 80 57 137t139 57q80 0 138.5 -56t58.5 -138t-57.5 -139.5t-139.5 -57.5t-139 57.5t-57 139.5z" />
<glyph unicode="&#xbc;" d="M152 586q0 80 57 137t139 57q80 0 138.5 -56t58.5 -138t-57.5 -139.5t-139.5 -57.5t-139 57.5t-57 139.5z" />
<glyph unicode="&#xbd;" d="M152 586q0 80 57 137t139 57q80 0 138.5 -56t58.5 -138t-57.5 -139.5t-139.5 -57.5t-139 57.5t-57 139.5z" />
<glyph unicode="&#xbe;" d="M152 586q0 80 57 137t139 57q80 0 138.5 -56t58.5 -138t-57.5 -139.5t-139.5 -57.5t-139 57.5t-57 139.5z" />
<glyph unicode="&#xbf;" d="M152 586q0 80 57 137t139 57q80 0 138.5 -56t58.5 -138t-57.5 -139.5t-139.5 -57.5t-139 57.5t-57 139.5z" />
<glyph unicode="&#xc0;" d="M152 586q0 80 57 137t139 57q80 0 138.5 -56t58.5 -138t-57.5 -139.5t-139.5 -57.5t-139 57.5t-57 139.5z" />
<glyph unicode="&#xc1;" d="M152 586q0 80 57 137t139 57q80 0 138.5 -56t58.5 -138t-57.5 -139.5t-139.5 -57.5t-139 57.5t-57 139.5z" />
<glyph unicode="&#xc2;" d="M152 586q0 80 57 137t139 57q80 0 138.5 -56t58.5 -138t-57.5 -139.5t-139.5 -57.5t-139 57.5t-57 139.5z" />
<glyph unicode="&#xc3;" d="M152 586q0 80 57 137t139 57q80 0 138.5 -56t58.5 -138t-57.5 -139.5t-139.5 -57.5t-139 57.5t-57 139.5z" />
<glyph unicode="&#xc4;" d="M152 586q0 80 57 137t139 57q80 0 138.5 -56t58.5 -138t-57.5 -139.5t-139.5 -57.5t-139 57.5t-57 139.5z" />
<glyph unicode="&#xc5;" d="M152 586q0 80 57 137t139 57q80 0 138.5 -56t58.5 -138t-57.5 -139.5t-139.5 -57.5t-139 57.5t-57 139.5z" />
<glyph unicode="&#xc6;" d="M152 586q0 80 57 137t139 57q80 0 138.5 -56t58.5 -138t-57.5 -139.5t-139.5 -57.5t-139 57.5t-57 139.5z" />
<glyph unicode="&#xc7;" d="M152 586q0 80 57 137t139 57q80 0 138.5 -56t58.5 -138t-57.5 -139.5t-139.5 -57.5t-139 57.5t-57 139.5z" />
<glyph unicode="&#xc8;" d="M152 586q0 80 57 137t139 57q80 0 138.5 -56t58.5 -138t-57.5 -139.5t-139.5 -57.5t-139 57.5t-57 139.5z" />
<glyph unicode="&#xc9;" d="M152 586q0 80 57 137t139 57q80 0 138.5 -56t58.5 -138t-57.5 -139.5t-139.5 -57.5t-139 57.5t-57 139.5z" />
<glyph unicode="&#xca;" d="M152 586q0 80 57 137t139 57q80 0 138.5 -56t58.5 -138t-57.5 -139.5t-139.5 -57.5t-139 57.5t-57 139.5z" />
<glyph unicode="&#xcb;" d="M152 586q0 80 57 137t139 57q80 0 138.5 -56t58.5 -138t-57.5 -139.5t-139.5 -57.5t-139 57.5t-57 139.5z" />
<glyph unicode="&#xcc;" d="M152 586q0 80 57 137t139 57q80 0 138.5 -56t58.5 -138t-57.5 -139.5t-139.5 -57.5t-139 57.5t-57 139.5z" />
<glyph unicode="&#xcd;" d="M152 586q0 80 57 137t139 57q80 0 138.5 -56t58.5 -138t-57.5 -139.5t-139.5 -57.5t-139 57.5t-57 139.5z" />
<glyph unicode="&#xce;" d="M152 586q0 80 57 137t139 57q80 0 138.5 -56t58.5 -138t-57.5 -139.5t-139.5 -57.5t-139 57.5t-57 139.5z" />
<glyph unicode="&#xcf;" d="M152 586q0 80 57 137t139 57q80 0 138.5 -56t58.5 -138t-57.5 -139.5t-139.5 -57.5t-139 57.5t-57 139.5z" />
<glyph unicode="&#xd0;" d="M152 586q0 80 57 137t139 57q80 0 138.5 -56t58.5 -138t-57.5 -139.5t-139.5 -57.5t-139 57.5t-57 139.5z" />
<glyph unicode="&#xd1;" d="M152 586q0 80 57 137t139 57q80 0 138.5 -56t58.5 -138t-57.5 -139.5t-139.5 -57.5t-139 57.5t-57 139.5z" />
<glyph unicode="&#xd2;" d="M152 586q0 80 57 137t139 57q80 0 138.5 -56t58.5 -138t-57.5 -139.5t-139.5 -57.5t-139 57.5t-57 139.5z" />
<glyph unicode="&#xd3;" d="M152 586q0 80 57 137t139 57q80 0 138.5 -56t58.5 -138t-57.5 -139.5t-139.5 -57.5t-139 57.5t-57 139.5z" />
<glyph unicode="&#xd4;" d="M152 586q0 80 57 137t139 57q80 0 138.5 -56t58.5 -138t-57.5 -139.5t-139.5 -57.5t-139 57.5t-57 139.5z" />
<glyph unicode="&#xd5;" d="M152 586q0 80 57 137t139 57q80 0 138.5 -56t58.5 -138t-57.5 -139.5t-139.5 -57.5t-139 57.5t-57 139.5z" />
<glyph unicode="&#xd6;" d="M152 586q0 80 57 137t139 57q80 0 138.5 -56t58.5 -138t-57.5 -139.5t-139.5 -57.5t-139 57.5t-57 139.5z" />
<glyph unicode="&#xd7;" d="M152 586q0 80 57 137t139 57q80 0 138.5 -56t58.5 -138t-57.5 -139.5t-139.5 -57.5t-139 57.5t-57 139.5z" />
<glyph unicode="&#xd8;" d="M152 586q0 80 57 137t139 57q80 0 138.5 -56t58.5 -138t-57.5 -139.5t-139.5 -57.5t-139 57.5t-57 139.5z" />
<glyph unicode="&#xd9;" d="M152 586q0 80 57 137t139 57q80 0 138.5 -56t58.5 -138t-57.5 -139.5t-139.5 -57.5t-139 57.5t-57 139.5z" />
<glyph unicode="&#xda;" d="M152 586q0 80 57 137t139 57q80 0 138.5 -56t58.5 -138t-57.5 -139.5t-139.5 -57.5t-139 57.5t-57 139.5z" />
<glyph unicode="&#xdb;" d="M152 586q0 80 57 137t139 57q80 0 138.5 -56t58.5 -138t-57.5 -139.5t-139.5 -57.5t-139 57.5t-57 139.5z" />
<glyph unicode="&#xdc;" d="M152 586q0 80 57 137t139 57q80 0 138.5 -56t58.5 -138t-57.5 -139.5t-139.5 -57.5t-139 57.5t-57 139.5z" />
<glyph unicode="&#xdd;" d="M152 586q0 80 57 137t139 57q80 0 138.5 -56t58.5 -138t-57.5 -139.5t-139.5 -57.5t-139 57.5t-57 139.5z" />
<glyph unicode="&#xde;" d="M152 586q0 80 57 137t139 57q80 0 138.5 -56t58.5 -138t-57.5 -139.5t-139.5 -57.5t-139 57.5t-57 139.5z" />
<glyph unicode="&#xdf;" d="M152 586q0 80 57 137t139 57q80 0 138.5 -56t58.5 -138t-57.5 -139.5t-139.5 -57.5t-139 57.5t-57 139.5z" />
<glyph unicode="&#xe0;" d="M152 586q0 80 57 137t139 57q80 0 138.5 -56t58.5 -138t-57.5 -139.5t-139.5 -57.5t-139 57.5t-57 139.5z" />
<glyph unicode="&#xe1;" d="M152 586q0 80 57 137t139 57q80 0 138.5 -56t58.5 -138t-57.5 -139.5t-139.5 -57.5t-139 57.5t-57 139.5z" />
<glyph unicode="&#xe2;" d="M152 586q0 80 57 137t139 57q80 0 138.5 -56t58.5 -138t-57.5 -139.5t-139.5 -57.5t-139 57.5t-57 139.5z" />
<glyph unicode="&#xe3;" d="M152 586q0 80 57 137t139 57q80 0 138.5 -56t58.5 -138t-57.5 -139.5t-139.5 -57.5t-139 57.5t-57 139.5z" />
<glyph unicode="&#xe4;" d="M152 586q0 80 57 137t139 57q80 0 138.5 -56t58.5 -138t-57.5 -139.5t-139.5 -57.5t-139 57.5t-57 139.5z" />
<glyph unicode="&#xe5;" d="M152 586q0 80 57 137t139 57q80 0 138.5 -56t58.5 -138t-57.5 -139.5t-139.5 -57.5t-139 57.5t-57 139.5z" />
<glyph unicode="&#xe6;" d="M152 586q0 80 57 137t139 57q80 0 138.5 -56t58.5 -138t-57.5 -139.5t-139.5 -57.5t-139 57.5t-57 139.5z" />
<glyph unicode="&#xe7;" d="M152 586q0 80 57 137t139 57q80 0 138.5 -56t58.5 -138t-57.5 -139.5t-139.5 -57.5t-139 57.5t-57 139.5z" />
<glyph unicode="&#xe8;" d="M152 586q0 80 57 137t139 57q80 0 138.5 -56t58.5 -138t-57.5 -139.5t-139.5 -57.5t-139 57.5t-57 139.5z" />
<glyph unicode="&#xe9;" d="M152 586q0 80 57 137t139 57q80 0 138.5 -56t58.5 -138t-57.5 -139.5t-139.5 -57.5t-139 57.5t-57 139.5z" />
<glyph unicode="&#xea;" d="M152 586q0 80 57 137t139 57q80 0 138.5 -56t58.5 -138t-57.5 -139.5t-139.5 -57.5t-139 57.5t-57 139.5z" />
<glyph unicode="&#xeb;" d="M152 586q0 80 57 137t139 57q80 0 138.5 -56t58.5 -138t-57.5 -139.5t-139.5 -57.5t-139 57.5t-57 139.5z" />
<glyph unicode="&#xec;" d="M152 586q0 80 57 137t139 57q80 0 138.5 -56t58.5 -138t-57.5 -139.5t-139.5 -57.5t-139 57.5t-57 139.5z" />
<glyph unicode="&#xed;" d="M152 586q0 80 57 137t139 57q80 0 138.5 -56t58.5 -138t-57.5 -139.5t-139.5 -57.5t-139 57.5t-57 139.5z" />
<glyph unicode="&#xee;" d="M152 586q0 80 57 137t139 57q80 0 138.5 -56t58.5 -138t-57.5 -139.5t-139.5 -57.5t-139 57.5t-57 139.5z" />
<glyph unicode="&#xef;" d="M152 586q0 80 57 137t139 57q80 0 138.5 -56t58.5 -138t-57.5 -139.5t-139.5 -57.5t-139 57.5t-57 139.5z" />
<glyph unicode="&#xf0;" d="M152 586q0 80 57 137t139 57q80 0 138.5 -56t58.5 -138t-57.5 -139.5t-139.5 -57.5t-139 57.5t-57 139.5z" />
<glyph unicode="&#xf1;" d="M152 586q0 80 57 137t139 57q80 0 138.5 -56t58.5 -138t-57.5 -139.5t-139.5 -57.5t-139 57.5t-57 139.5z" />
<glyph unicode="&#xf2;" d="M152 586q0 80 57 137t139 57q80 0 138.5 -56t58.5 -138t-57.5 -139.5t-139.5 -57.5t-139 57.5t-57 139.5z" />
<glyph unicode="&#xf3;" d="M152 586q0 80 57 137t139 57q80 0 138.5 -56t58.5 -138t-57.5 -139.5t-139.5 -57.5t-139 57.5t-57 139.5z" />
<glyph unicode="&#xf4;" d="M152 586q0 80 57 137t139 57q80 0 138.5 -56t58.5 -138t-57.5 -139.5t-139.5 -57.5t-139 57.5t-57 139.5z" />
<glyph unicode="&#xf5;" d="M152 586q0 80 57 137t139 57q80 0 138.5 -56t58.5 -138t-57.5 -139.5t-139.5 -57.5t-139 57.5t-57 139.5z" />
<glyph unicode="&#xf6;" d="M152 586q0 80 57 137t139 57q80 0 138.5 -56t58.5 -138t-57.5 -139.5t-139.5 -57.5t-139 57.5t-57 139.5z" />
<glyph unicode="&#xf7;" d="M152 586q0 80 57 137t139 57q80 0 138.5 -56t58.5 -138t-57.5 -139.5t-139.5 -57.5t-139 57.5t-57 139.5z" />
<glyph unicode="&#xf8;" d="M152 586q0 80 57 137t139 57q80 0 138.5 -56t58.5 -138t-57.5 -139.5t-139.5 -57.5t-139 57.5t-57 139.5z" />
<glyph unicode="&#xf9;" d="M152 586q0 80 57 137t139 57q80 0 138.5 -56t58.5 -138t-57.5 -139.5t-139.5 -57.5t-139 57.5t-57 139.5z" />
<glyph unicode="&#xfa;" d="M152 586q0 80 57 137t139 57q80 0 138.5 -56t58.5 -138t-57.5 -139.5t-139.5 -57.5t-139 57.5t-57 139.5z" />
<glyph unicode="&#xfb;" d="M152 586q0 80 57 137t139 57q80 0 138.5 -56t58.5 -138t-57.5 -139.5t-139.5 -57.5t-139 57.5t-57 139.5z" />
<glyph unicode="&#xfc;" d="M152 586q0 80 57 137t139 57q80 0 138.5 -56t58.5 -138t-57.5 -139.5t-139.5 -57.5t-139 57.5t-57 139.5z" />
<glyph unicode="&#xfd;" d="M152 586q0 80 57 137t139 57q80 0 138.5 -56t58.5 -138t-57.5 -139.5t-139.5 -57.5t-139 57.5t-57 139.5z" />
<glyph unicode="&#xfe;" d="M152 586q0 80 57 137t139 57q80 0 138.5 -56t58.5 -138t-57.5 -139.5t-139.5 -57.5t-139 57.5t-57 139.5z" />
<glyph unicode="&#xff;" d="M152 586q0 80 57 137t139 57q80 0 138.5 -56t58.5 -138t-57.5 -139.5t-139.5 -57.5t-139 57.5t-57 139.5z" />
<glyph unicode="&#x152;" d="M152 586q0 80 57 137t139 57q80 0 138.5 -56t58.5 -138t-57.5 -139.5t-139.5 -57.5t-139 57.5t-57 139.5z" />
<glyph unicode="&#x153;" d="M152 586q0 80 57 137t139 57q80 0 138.5 -56t58.5 -138t-57.5 -139.5t-139.5 -57.5t-139 57.5t-57 139.5z" />
<glyph unicode="&#x178;" d="M152 586q0 80 57 137t139 57q80 0 138.5 -56t58.5 -138t-57.5 -139.5t-139.5 -57.5t-139 57.5t-57 139.5z" />
<glyph unicode="&#x2c6;" d="M152 586q0 80 57 137t139 57q80 0 138.5 -56t58.5 -138t-57.5 -139.5t-139.5 -57.5t-139 57.5t-57 139.5z" />
<glyph unicode="&#x2dc;" d="M152 586q0 80 57 137t139 57q80 0 138.5 -56t58.5 -138t-57.5 -139.5t-139.5 -57.5t-139 57.5t-57 139.5z" />
<glyph unicode="&#x2000;" horiz-adv-x="783" />
<glyph unicode="&#x2001;" horiz-adv-x="1567" />
<glyph unicode="&#x2002;" horiz-adv-x="783" />
<glyph unicode="&#x2003;" horiz-adv-x="1567" />
<glyph unicode="&#x2004;" horiz-adv-x="522" />
<glyph unicode="&#x2005;" horiz-adv-x="391" />
<glyph unicode="&#x2006;" horiz-adv-x="261" />
<glyph unicode="&#x2007;" horiz-adv-x="261" />
<glyph unicode="&#x2008;" horiz-adv-x="195" />
<glyph unicode="&#x2009;" horiz-adv-x="313" />
<glyph unicode="&#x200a;" horiz-adv-x="87" />
<glyph unicode="&#x2010;" horiz-adv-x="1413" d="M152 446q0 4 11 25t21 41q55 90 162 135q61 25 119 25q55 0 139 -25q47 -14 94 -29q104 -43 156.5 -58t101.5 -15l41 4q68 0 96.5 6t65.5 39q23 18 44.5 27.5t37.5 9.5q45 0 45 -49q0 -29 -8 -41q-16 -29 -30.5 -47.5t-51.5 -42.5q-43 -33 -69.5 -43.5t-82.5 -10.5 l-43 -4q-63 0 -129 23q-186 66 -210 67q-84 14 -168 29h-29q-41 -4 -135 -47q-49 -23 -68 -23q-18 0 -40.5 -3t-45.5 -5q-14 0 -20 6q-2 2 -4 6z" />
<glyph unicode="&#x2011;" horiz-adv-x="1413" d="M152 446q0 4 11 25t21 41q55 90 162 135q61 25 119 25q55 0 139 -25q47 -14 94 -29q104 -43 156.5 -58t101.5 -15l41 4q68 0 96.5 6t65.5 39q23 18 44.5 27.5t37.5 9.5q45 0 45 -49q0 -29 -8 -41q-16 -29 -30.5 -47.5t-51.5 -42.5q-43 -33 -69.5 -43.5t-82.5 -10.5 l-43 -4q-63 0 -129 23q-186 66 -210 67q-84 14 -168 29h-29q-41 -4 -135 -47q-49 -23 -68 -23q-18 0 -40.5 -3t-45.5 -5q-14 0 -20 6q-2 2 -4 6z" />
<glyph unicode="&#x2012;" horiz-adv-x="1413" d="M152 446q0 4 11 25t21 41q55 90 162 135q61 25 119 25q55 0 139 -25q47 -14 94 -29q104 -43 156.5 -58t101.5 -15l41 4q68 0 96.5 6t65.5 39q23 18 44.5 27.5t37.5 9.5q45 0 45 -49q0 -29 -8 -41q-16 -29 -30.5 -47.5t-51.5 -42.5q-43 -33 -69.5 -43.5t-82.5 -10.5 l-43 -4q-63 0 -129 23q-186 66 -210 67q-84 14 -168 29h-29q-41 -4 -135 -47q-49 -23 -68 -23q-18 0 -40.5 -3t-45.5 -5q-14 0 -20 6q-2 2 -4 6z" />
<glyph unicode="&#x2013;" d="M152 586q0 80 57 137t139 57q80 0 138.5 -56t58.5 -138t-57.5 -139.5t-139.5 -57.5t-139 57.5t-57 139.5z" />
<glyph unicode="&#x2014;" d="M152 586q0 80 57 137t139 57q80 0 138.5 -56t58.5 -138t-57.5 -139.5t-139.5 -57.5t-139 57.5t-57 139.5z" />
<glyph unicode="&#x2018;" d="M152 586q0 80 57 137t139 57q80 0 138.5 -56t58.5 -138t-57.5 -139.5t-139.5 -57.5t-139 57.5t-57 139.5z" />
<glyph unicode="&#x2019;" d="M152 586q0 80 57 137t139 57q80 0 138.5 -56t58.5 -138t-57.5 -139.5t-139.5 -57.5t-139 57.5t-57 139.5z" />
<glyph unicode="&#x201a;" d="M152 586q0 80 57 137t139 57q80 0 138.5 -56t58.5 -138t-57.5 -139.5t-139.5 -57.5t-139 57.5t-57 139.5z" />
<glyph unicode="&#x201c;" d="M152 586q0 80 57 137t139 57q80 0 138.5 -56t58.5 -138t-57.5 -139.5t-139.5 -57.5t-139 57.5t-57 139.5z" />
<glyph unicode="&#x201d;" d="M152 586q0 80 57 137t139 57q80 0 138.5 -56t58.5 -138t-57.5 -139.5t-139.5 -57.5t-139 57.5t-57 139.5z" />
<glyph unicode="&#x201e;" d="M152 586q0 80 57 137t139 57q80 0 138.5 -56t58.5 -138t-57.5 -139.5t-139.5 -57.5t-139 57.5t-57 139.5z" />
<glyph unicode="&#x2022;" d="M152 586q0 80 57 137t139 57q80 0 138.5 -56t58.5 -138t-57.5 -139.5t-139.5 -57.5t-139 57.5t-57 139.5z" />
<glyph unicode="&#x2026;" d="M152 586q0 80 57 137t139 57q80 0 138.5 -56t58.5 -138t-57.5 -139.5t-139.5 -57.5t-139 57.5t-57 139.5z" />
<glyph unicode="&#x202f;" horiz-adv-x="313" />
<glyph unicode="&#x2039;" d="M152 586q0 80 57 137t139 57q80 0 138.5 -56t58.5 -138t-57.5 -139.5t-139.5 -57.5t-139 57.5t-57 139.5z" />
<glyph unicode="&#x203a;" d="M152 586q0 80 57 137t139 57q80 0 138.5 -56t58.5 -138t-57.5 -139.5t-139.5 -57.5t-139 57.5t-57 139.5z" />
<glyph unicode="&#x205f;" horiz-adv-x="391" />
<glyph unicode="&#x2122;" d="M152 586q0 80 57 137t139 57q80 0 138.5 -56t58.5 -138t-57.5 -139.5t-139.5 -57.5t-139 57.5t-57 139.5z" />
<glyph unicode="&#x25fc;" horiz-adv-x="962" d="M0 0v963h963v-963h-963z" />
</font>
</defs>
</svg>
